<svg width="10" height="10" viewBox="0 0 10 10" fill="none" xmlns="http://www.w3.org/2000/svg">
<g opacity="0.3">
<path fill-rule="evenodd" clip-rule="evenodd" d="M5.58926 9.75592C5.88966 9.45552 5.91277 8.98283 5.65858 8.65592L5.58926 8.57741L2.01184 5L5.58925 1.42259C5.91469 1.09715 5.91469 0.569515 5.58925 0.244077C5.28885 -0.0563252 4.81616 -0.0794337 4.48925 0.174754L4.41074 0.244077L0.244078 4.41074C-0.0563257 4.71115 -0.0794339 5.18384 0.174753 5.51075L0.244078 5.58926L4.41074 9.75592C4.73618 10.0814 5.26382 10.0814 5.58926 9.75592Z" fill="black"/>
<path d="M2.5 5.83333C2.03976 5.83333 1.66667 5.46024 1.66667 5C1.66667 4.53976 2.03976 4.16667 2.5 4.16667L9.16667 4.16667C9.6269 4.16667 10 4.53976 10 5C10 5.46024 9.6269 5.83333 9.16667 5.83333L2.5 5.83333Z" fill="black"/>
</g>
</svg>
