<svg width="12" height="7" viewBox="0 0 12 7" fill="none" xmlns="http://www.w3.org/2000/svg">
<g opacity="0.5">
<path fill-rule="evenodd" clip-rule="evenodd" d="M11 1.55569C11 1.69791 10.9456 1.84013 10.8372 1.94846L6.39284 6.39284C6.17562 6.61006 5.82452 6.61006 5.6073 6.39284L1.16291 1.94846C0.945695 1.73124 0.945695 1.38013 1.16291 1.16291C1.38013 0.945695 1.73124 0.945695 1.94846 1.16291L6.00007 5.21452L10.0517 1.16291C10.2689 0.945695 10.62 0.945695 10.8372 1.16291C10.9456 1.27125 11 1.41347 11 1.55569Z" fill="black"/>
<path d="M11 1.55569C11 1.69791 10.9456 1.84013 10.8372 1.94846L6.39284 6.39284C6.17562 6.61006 5.82452 6.61006 5.6073 6.39284L1.16291 1.94846C0.945695 1.73124 0.945695 1.38013 1.16291 1.16291C1.38013 0.945695 1.73124 0.945695 1.94846 1.16291L6.00007 5.21452L10.0517 1.16291C10.2689 0.945695 10.62 0.945695 10.8372 1.16291C10.9456 1.27125 11 1.41347 11 1.55569" stroke="black" stroke-width="0.5"/>
</g>
</svg>
