<svg width="6" height="11" viewBox="0 0 6 11" fill="none" xmlns="http://www.w3.org/2000/svg">
<path fill-rule="evenodd" clip-rule="evenodd" d="M0.146447 7.64645C0.326689 7.4662 0.610304 7.45234 0.80645 7.60485L0.853553 7.64645L3 9.79289L5.14645 7.64645C5.34171 7.45118 5.65829 7.45118 5.85355 7.64645C6.0338 7.82669 6.04766 8.1103 5.89515 8.30645L5.85355 8.35355L3.35355 10.8536C3.17331 11.0338 2.8897 11.0477 2.69355 10.8951L2.64645 10.8536L0.146447 8.35355C-0.0488155 8.15829 -0.0488155 7.84171 0.146447 7.64645Z" fill="#1900CA"/>
<path d="M2.5 10C2.5 10.2761 2.72386 10.5 3 10.5C3.27614 10.5 3.5 10.2761 3.5 10V1C3.5 0.723858 3.27614 0.5 3 0.5C2.72386 0.5 2.5 0.723858 2.5 1V10Z" fill="#1900CA"/>
</svg>
