<svg width="12" height="7" viewBox="0 0 12 7" fill="none" xmlns="http://www.w3.org/2000/svg">
<g opacity="0.5">
<path fill-rule="evenodd" clip-rule="evenodd" d="M11 6.0001C11 5.85788 10.9456 5.71566 10.8372 5.60733L6.39284 1.16295C6.17562 0.945726 5.82452 0.945726 5.6073 1.16295L1.16291 5.60733C0.945695 5.82455 0.945695 6.17565 1.16291 6.39287C1.38013 6.61009 1.73124 6.61009 1.94846 6.39287L6.00007 2.34126L10.0517 6.39287C10.2689 6.61009 10.62 6.61009 10.8372 6.39287C10.9456 6.28454 11 6.14232 11 6.0001Z" fill="black"/>
<path d="M11 6.0001C11 5.85788 10.9456 5.71566 10.8372 5.60733L6.39284 1.16295C6.17562 0.945726 5.82452 0.945726 5.6073 1.16295L1.16291 5.60733C0.945695 5.82455 0.945695 6.17565 1.16291 6.39287C1.38013 6.61009 1.73124 6.61009 1.94846 6.39287L6.00007 2.34126L10.0517 6.39287C10.2689 6.61009 10.62 6.61009 10.8372 6.39287C10.9456 6.28454 11 6.14232 11 6.0001" stroke="black" stroke-width="0.5"/>
</g>
</svg>
