<svg width="10" height="10" viewBox="0 0 10 10" fill="none" xmlns="http://www.w3.org/2000/svg">
<path fill-rule="evenodd" clip-rule="evenodd" d="M4.41074 9.75592C4.11034 9.45552 4.08723 8.98283 4.34142 8.65592L4.41074 8.57741L7.98816 5L4.41075 1.42259C4.08531 1.09715 4.08531 0.569515 4.41075 0.244077C4.71115 -0.0563252 5.18384 -0.0794337 5.51075 0.174754L5.58926 0.244077L9.75592 4.41074C10.0563 4.71115 10.0794 5.18384 9.82525 5.51075L9.75592 5.58926L5.58926 9.75592C5.26382 10.0814 4.73618 10.0814 4.41074 9.75592Z" fill="black"/>
<path d="M7.5 5.83333C7.96024 5.83333 8.33333 5.46024 8.33333 5C8.33333 4.53976 7.96024 4.16667 7.5 4.16667L0.833334 4.16667C0.373097 4.16667 2.38675e-07 4.53976 2.18557e-07 5C1.98439e-07 5.46024 0.373097 5.83333 0.833334 5.83333L7.5 5.83333Z" fill="black"/>
</svg>
