<svg width="355" height="40" viewBox="0 0 355 40" fill="none" xmlns="http://www.w3.org/2000/svg">
<rect width="355" height="40" rx="8" fill="#2C8DFF"/>
<path d="M48.4545 26C51.5568 26 53.3963 24.081 53.3963 20.8991C53.3963 17.7273 51.5568 15.8182 48.5241 15.8182H45.0043V26H48.4545ZM46.8487 24.4041V17.4141H48.4197C50.4879 17.4141 51.5668 18.5675 51.5668 20.8991C51.5668 23.2408 50.4879 24.4041 48.3651 24.4041H46.8487ZM53.8786 15.8182L57.5824 22.2017V26H59.4219V22.2017L63.1257 15.8182H61.0426L58.5518 20.3224H58.4524L55.9616 15.8182H53.8786ZM72.9558 20.9091C72.9558 17.6179 70.9473 15.679 68.2775 15.679C65.6028 15.679 63.5993 17.6179 63.5993 20.9091C63.5993 24.1953 65.6028 26.1392 68.2775 26.1392C70.9473 26.1392 72.9558 24.2003 72.9558 20.9091ZM71.1014 20.9091C71.1014 23.2259 69.938 24.4837 68.2775 24.4837C66.622 24.4837 65.4537 23.2259 65.4537 20.9091C65.4537 18.5923 66.622 17.3345 68.2775 17.3345C69.938 17.3345 71.1014 18.5923 71.1014 20.9091ZM74.6996 26H76.544V22.2713H78.4233L80.4219 26H82.4801L80.2777 21.9631C81.4759 21.4808 82.1072 20.4567 82.1072 19.0746C82.1072 17.1307 80.8544 15.8182 78.5178 15.8182H74.6996V26ZM76.544 20.7401V17.3594H78.2344C79.6115 17.3594 80.228 17.9908 80.228 19.0746C80.228 20.1584 79.6115 20.7401 78.2443 20.7401H76.544ZM85.9279 15.8182H84.0039L84.163 23.0071H85.7638L85.9279 15.8182ZM84.9634 26.1094C85.5501 26.1094 86.0522 25.6222 86.0572 25.0156C86.0522 24.419 85.5501 23.9318 84.9634 23.9318C84.3569 23.9318 83.8647 24.419 83.8697 25.0156C83.8647 25.6222 84.3569 26.1094 84.9634 26.1094ZM95.0483 26C98.1506 26 99.9901 24.081 99.9901 20.8991C99.9901 17.7273 98.1506 15.8182 95.1179 15.8182H91.598V26H95.0483ZM93.4425 24.4041V17.4141H95.0135C97.0817 17.4141 98.1605 18.5675 98.1605 20.8991C98.1605 23.2408 97.0817 24.4041 94.9588 24.4041H93.4425ZM104.994 26.1491C107.231 26.1491 108.653 24.5732 108.653 22.2116C108.653 19.8452 107.231 18.2642 104.994 18.2642C102.757 18.2642 101.335 19.8452 101.335 22.2116C101.335 24.5732 102.757 26.1491 104.994 26.1491ZM105.004 24.7074C103.766 24.7074 103.159 23.6037 103.159 22.2067C103.159 20.8097 103.766 19.6911 105.004 19.6911C106.222 19.6911 106.828 20.8097 106.828 22.2067C106.828 23.6037 106.222 24.7074 105.004 24.7074ZM113.037 15.8182L116.741 22.2017V26H118.58V22.2017L122.284 15.8182H120.201L117.71 20.3224H117.611L115.12 15.8182H113.037ZM125.42 26.1491C127.657 26.1491 129.079 24.5732 129.079 22.2116C129.079 19.8452 127.657 18.2642 125.42 18.2642C123.183 18.2642 121.761 19.8452 121.761 22.2116C121.761 24.5732 123.183 26.1491 125.42 26.1491ZM125.43 24.7074C124.192 24.7074 123.585 23.6037 123.585 22.2067C123.585 20.8097 124.192 19.6911 125.43 19.6911C126.648 19.6911 127.254 20.8097 127.254 22.2067C127.254 23.6037 126.648 24.7074 125.43 24.7074ZM135.474 22.7884C135.474 23.9517 134.643 24.5284 133.848 24.5284C132.983 24.5284 132.406 23.9169 132.406 22.9474V18.3636H130.606V23.2259C130.606 25.0604 131.65 26.0994 133.152 26.0994C134.295 26.0994 135.101 25.4979 135.449 24.6428H135.528V26H137.273V18.3636H135.474V22.7884ZM151.774 20.9091C151.774 17.6179 149.766 15.679 147.096 15.679C144.421 15.679 142.418 17.6179 142.418 20.9091C142.418 24.1953 144.421 26.1392 147.096 26.1392C149.766 26.1392 151.774 24.2003 151.774 20.9091ZM149.92 20.9091C149.92 23.2259 148.756 24.4837 147.096 24.4837C145.44 24.4837 144.272 23.2259 144.272 20.9091C144.272 18.5923 145.44 17.3345 147.096 17.3345C148.756 17.3345 149.92 18.5923 149.92 20.9091ZM155.014 26H156.894L158.325 20.8395H158.43L159.862 26H161.736L163.899 18.3636H162.059L160.737 23.7031H160.662L159.29 18.3636H157.475L156.103 23.733H156.034L154.691 18.3636H152.857L155.014 26ZM166.955 21.5256C166.955 20.4219 167.621 19.7855 168.571 19.7855C169.5 19.7855 170.057 20.397 170.057 21.4162V26H171.857V21.1378C171.862 19.3082 170.818 18.2642 169.242 18.2642C168.098 18.2642 167.313 18.8111 166.965 19.6612H166.875V18.3636H165.155V26H166.955V21.5256ZM177.239 26H179.083V22.2713H180.962L182.961 26H185.019L182.817 21.9631C184.015 21.4808 184.646 20.4567 184.646 19.0746C184.646 17.1307 183.393 15.8182 181.057 15.8182H177.239V26ZM179.083 20.7401V17.3594H180.773C182.151 17.3594 182.767 17.9908 182.767 19.0746C182.767 20.1584 182.151 20.7401 180.783 20.7401H179.083ZM189.536 26.1491C191.316 26.1491 192.539 25.2791 192.857 23.9517L191.176 23.7628C190.933 24.4091 190.336 24.7472 189.561 24.7472C188.397 24.7472 187.627 23.9815 187.612 22.674H192.931V22.1222C192.931 19.4425 191.321 18.2642 189.441 18.2642C187.254 18.2642 185.827 19.87 185.827 22.2266C185.827 24.6229 187.234 26.1491 189.536 26.1491ZM187.617 21.4609C187.672 20.4865 188.392 19.6662 189.466 19.6662C190.5 19.6662 191.196 20.4219 191.206 21.4609H187.617ZM200.49 20.3821C200.241 19.0895 199.207 18.2642 197.417 18.2642C195.578 18.2642 194.325 19.169 194.33 20.581C194.325 21.6946 195.011 22.4304 196.477 22.7337L197.78 23.0071C198.481 23.1612 198.809 23.4446 198.809 23.8771C198.809 24.3991 198.242 24.7919 197.387 24.7919C196.562 24.7919 196.025 24.4339 195.871 23.7479L194.116 23.9169C194.34 25.3189 195.518 26.1491 197.392 26.1491C199.301 26.1491 200.649 25.1598 200.654 23.7131C200.649 22.6243 199.948 21.9581 198.506 21.6449L197.203 21.3665C196.428 21.1925 196.119 20.924 196.124 20.4815C196.119 19.9645 196.691 19.6065 197.442 19.6065C198.272 19.6065 198.71 20.0589 198.849 20.5611L200.49 20.3821ZM205.518 26.1491C207.298 26.1491 208.521 25.2791 208.839 23.9517L207.159 23.7628C206.915 24.4091 206.319 24.7472 205.543 24.7472C204.38 24.7472 203.609 23.9815 203.594 22.674H208.914V22.1222C208.914 19.4425 207.303 18.2642 205.424 18.2642C203.236 18.2642 201.809 19.87 201.809 22.2266C201.809 24.6229 203.216 26.1491 205.518 26.1491ZM203.599 21.4609C203.654 20.4865 204.375 19.6662 205.449 19.6662C206.483 19.6662 207.179 20.4219 207.189 21.4609H203.599ZM212.634 26.1541C213.832 26.1541 214.548 25.5923 214.876 24.951H214.936V26H216.666V20.8892C216.666 18.8707 215.02 18.2642 213.564 18.2642C211.958 18.2642 210.725 18.9801 210.327 20.3722L212.007 20.6108C212.186 20.0888 212.694 19.6413 213.574 19.6413C214.409 19.6413 214.866 20.0689 214.866 20.8196V20.8494C214.866 21.3665 214.324 21.3913 212.977 21.5355C211.495 21.6946 210.078 22.1371 210.078 23.8572C210.078 25.3587 211.177 26.1541 212.634 26.1541ZM213.101 24.8317C212.35 24.8317 211.814 24.4886 211.814 23.8274C211.814 23.1364 212.415 22.848 213.221 22.7337C213.693 22.669 214.637 22.5497 214.871 22.3608V23.2607C214.871 24.1108 214.185 24.8317 213.101 24.8317ZM218.475 26H220.275V21.5107C220.275 20.5412 221.006 19.8551 221.995 19.8551C222.299 19.8551 222.676 19.9098 222.831 19.9595V18.304C222.667 18.2741 222.383 18.2543 222.184 18.2543C221.309 18.2543 220.578 18.7514 220.3 19.6364H220.221V18.3636H218.475V26ZM227.043 26.1491C228.962 26.1491 230.185 25.0107 230.314 23.3899H228.594C228.44 24.2102 227.848 24.6825 227.058 24.6825C225.934 24.6825 225.208 23.7429 225.208 22.1818C225.208 20.6406 225.949 19.7159 227.058 19.7159C227.923 19.7159 228.455 20.2727 228.594 21.0085H230.314C230.19 19.353 228.897 18.2642 227.033 18.2642C224.796 18.2642 223.384 19.88 223.384 22.2116C223.384 24.5234 224.761 26.1491 227.043 26.1491ZM233.592 21.5256C233.592 20.4219 234.278 19.7855 235.242 19.7855C236.187 19.7855 236.744 20.3871 236.744 21.4162V26H238.543V21.1378C238.543 19.2933 237.499 18.2642 235.913 18.2642C234.74 18.2642 233.994 18.7962 233.641 19.6612H233.552V15.8182H231.792V26H233.592V21.5256ZM246.048 26.1541C247.246 26.1541 247.962 25.5923 248.29 24.951H248.35V26H250.08V20.8892C250.08 18.8707 248.434 18.2642 246.978 18.2642C245.372 18.2642 244.139 18.9801 243.741 20.3722L245.422 20.6108C245.6 20.0888 246.108 19.6413 246.988 19.6413C247.823 19.6413 248.28 20.0689 248.28 20.8196V20.8494C248.28 21.3665 247.738 21.3913 246.391 21.5355C244.909 21.6946 243.493 22.1371 243.493 23.8572C243.493 25.3587 244.591 26.1541 246.048 26.1541ZM246.515 24.8317C245.765 24.8317 245.228 24.4886 245.228 23.8274C245.228 23.1364 245.829 22.848 246.635 22.7337C247.107 22.669 248.051 22.5497 248.285 22.3608V23.2607C248.285 24.1108 247.599 24.8317 246.515 24.8317ZM253.689 21.5256C253.689 20.4219 254.355 19.7855 255.305 19.7855C256.235 19.7855 256.792 20.397 256.792 21.4162V26H258.591V21.1378C258.596 19.3082 257.552 18.2642 255.976 18.2642C254.833 18.2642 254.047 18.8111 253.699 19.6612H253.61V18.3636H251.89V26H253.689V21.5256ZM263.255 26.1342C264.567 26.1342 265.159 25.3537 265.442 24.7969H265.551V26H267.321V15.8182H265.517V19.6264H265.442C265.169 19.0746 264.607 18.2642 263.26 18.2642C261.495 18.2642 260.108 19.6463 260.108 22.1918C260.108 24.7074 261.455 26.1342 263.255 26.1342ZM263.757 24.6577C262.569 24.6577 261.942 23.6136 261.942 22.1818C261.942 20.7599 262.559 19.7408 263.757 19.7408C264.915 19.7408 265.551 20.7003 265.551 22.1818C265.551 23.6634 264.905 24.6577 263.757 24.6577ZM274.909 26.1541C276.107 26.1541 276.823 25.5923 277.151 24.951H277.211V26H278.941V20.8892C278.941 18.8707 277.296 18.2642 275.839 18.2642C274.233 18.2642 273 18.9801 272.602 20.3722L274.283 20.6108C274.462 20.0888 274.969 19.6413 275.849 19.6413C276.684 19.6413 277.142 20.0689 277.142 20.8196V20.8494C277.142 21.3665 276.6 21.3913 275.252 21.5355C273.771 21.6946 272.354 22.1371 272.354 23.8572C272.354 25.3587 273.453 26.1541 274.909 26.1541ZM275.377 24.8317C274.626 24.8317 274.089 24.4886 274.089 23.8274C274.089 23.1364 274.691 22.848 275.496 22.7337C275.968 22.669 276.913 22.5497 277.146 22.3608V23.2607C277.146 24.1108 276.46 24.8317 275.377 24.8317ZM280.751 26H282.551V21.5107C282.551 20.5412 283.281 19.8551 284.271 19.8551C284.574 19.8551 284.952 19.9098 285.106 19.9595V18.304C284.942 18.2741 284.659 18.2543 284.46 18.2543C283.585 18.2543 282.854 18.7514 282.575 19.6364H282.496V18.3636H280.751V26ZM289.368 26.1491C291.148 26.1491 292.371 25.2791 292.689 23.9517L291.009 23.7628C290.765 24.4091 290.168 24.7472 289.393 24.7472C288.229 24.7472 287.459 23.9815 287.444 22.674H292.763V22.1222C292.763 19.4425 291.153 18.2642 289.273 18.2642C287.086 18.2642 285.659 19.87 285.659 22.2266C285.659 24.6229 287.066 26.1491 289.368 26.1491ZM287.449 21.4609C287.504 20.4865 288.224 19.6662 289.298 19.6662C290.332 19.6662 291.028 20.4219 291.038 21.4609H287.449ZM303.372 18.6172H305.146C305.112 16.897 303.645 15.679 301.477 15.679C299.34 15.679 297.734 16.8821 297.739 18.6818C297.739 20.1435 298.778 20.9837 300.453 21.4162L301.612 21.7145C302.71 21.9929 303.436 22.3359 303.441 23.1264C303.436 23.9964 302.611 24.5781 301.408 24.5781C300.254 24.5781 299.36 24.0611 299.285 22.9922H297.47C297.545 25.0156 299.051 26.1541 301.423 26.1541C303.864 26.1541 305.281 24.9361 305.286 23.1413C305.281 21.3764 303.824 20.571 302.293 20.2081L301.338 19.9695C300.503 19.7706 299.598 19.4176 299.608 18.5675C299.613 17.8018 300.299 17.2401 301.453 17.2401C302.551 17.2401 303.277 17.7521 303.372 18.6172ZM308.074 26L308.914 23.4893H312.742L313.587 26H315.556L311.966 15.8182H309.689L306.105 26H308.074ZM309.411 22.0078L310.788 17.9062H310.868L312.245 22.0078H309.411ZM316.897 26H318.741V21.6747H322.972V20.1286H318.741V17.3643H323.42V15.8182H316.897V26ZM331.518 15.8182V22.3161C331.518 23.5938 330.628 24.5085 329.231 24.5085C327.829 24.5085 326.944 23.5938 326.944 22.3161V15.8182H325.1V22.4702C325.1 24.6577 326.741 26.1541 329.231 26.1541C331.712 26.1541 333.363 24.6577 333.363 22.4702V15.8182H331.518Z" fill="white"/>
<path fill-rule="evenodd" clip-rule="evenodd" d="M27.7858 14.5191C28.1258 14.6892 28.4016 14.9649 28.5716 15.3049L33.4809 25.1237C33.9149 25.9916 33.5631 27.0471 32.6951 27.4811C32.4512 27.6031 32.1821 27.6666 31.9093 27.6666H22.0906C21.1202 27.6666 20.3335 26.8799 20.3335 25.9095C20.3335 25.6367 20.397 25.3677 20.519 25.1237L25.4284 15.3049C25.8623 14.437 26.9178 14.0852 27.7858 14.5191ZM26.4917 15.9809L21.7268 25.5106C21.6874 25.5895 21.6668 25.6765 21.6668 25.7648C21.6668 26.0787 21.9213 26.3333 22.2353 26.3333H31.7649C31.8532 26.3333 31.9402 26.3127 32.0191 26.2732C32.2999 26.1328 32.4138 25.7914 32.2734 25.5106L27.5085 15.9809C27.4535 15.8709 27.3643 15.7817 27.2543 15.7267C26.9735 15.5863 26.6321 15.7001 26.4917 15.9809ZM27.0002 23.6666C27.3684 23.6666 27.6668 23.9651 27.6668 24.3333C27.6668 24.7014 27.3684 24.9999 27.0002 24.9999C26.632 24.9999 26.3335 24.7014 26.3335 24.3333C26.3335 23.9651 26.632 23.6666 27.0002 23.6666ZM27.0002 18.3333C27.3684 18.3333 27.6668 18.6317 27.6668 18.9999V21.6666C27.6668 22.0348 27.3684 22.3333 27.0002 22.3333C26.632 22.3333 26.3335 22.0348 26.3335 21.6666V18.9999C26.3335 18.6317 26.632 18.3333 27.0002 18.3333Z" fill="white"/>
</svg>
