<svg width="14" height="8" viewBox="0 0 14 8" fill="none" xmlns="http://www.w3.org/2000/svg">
<path d="M1.40876 7.8602L1.47157 7.80474L5.66683 3.61L7.86209 5.80474C8.10241 6.04506 8.48057 6.06355 8.7421 5.8602L8.8049 5.80474L11.6668 2.94333L12.5288 3.80474C12.9305 4.20645 13.6049 3.95178 13.6628 3.40909L13.6668 3.33333L13.6657 0.627077L13.6597 0.5687L13.643 0.48944L13.6269 0.438889L13.6044 0.384519L13.5695 0.319528L13.5249 0.255318L13.4716 0.195239C13.448 0.171666 13.423 0.150209 13.397 0.13089L13.3229 0.0831141L13.2477 0.0474837L13.1775 0.0238968L13.0991 0.0073452L13.0597 0.00264427L13.0002 0H10.3335C9.76538 0 9.46854 0.657009 9.81135 1.08168L9.86209 1.13807L10.7235 2L8.3335 4.39L6.13823 2.19526C5.89791 1.95494 5.51976 1.93645 5.25823 2.1398L5.19543 2.19526L0.528758 6.86193C0.268409 7.12228 0.268409 7.54439 0.528758 7.80474C0.769081 8.04506 1.14723 8.06355 1.40876 7.8602Z" fill="#FF523A"/>
</svg>
