<svg width="8" height="14" viewBox="0 0 8 14" fill="none" xmlns="http://www.w3.org/2000/svg">
<path fill-rule="evenodd" clip-rule="evenodd" d="M0.666504 4.66665C0.666504 3.19721 1.82485 2.00092 3.33665 1.72612L3.33395 1.69696L3.33317 0.99998C3.33317 0.63179 3.63165 0.333313 3.99984 0.333313C4.36803 0.333313 4.6665 0.63179 4.6665 0.99998V1.66665L4.66369 1.72624C6.17517 2.00128 7.33317 3.19742 7.33317 4.66665C7.33317 5.03484 7.03469 5.33331 6.6665 5.33331C6.32461 5.33331 6.04283 5.07595 6.00432 4.74439L5.99984 4.66665C5.99984 3.76744 5.12274 2.99998 3.99984 2.99998C2.87694 2.99998 1.99984 3.76744 1.99984 4.66665C1.99984 5.53255 2.81317 6.27628 3.87611 6.33019L3.99984 6.33331C5.82246 6.33331 7.33317 7.65519 7.33317 9.33331C7.33317 10.8015 6.17687 11.9969 4.66702 12.2731L4.6665 13C4.6665 13.3682 4.36803 13.6666 3.99984 13.6666C3.63165 13.6666 3.33317 13.3682 3.33317 13L3.33332 12.2732C1.82314 11.9973 0.666504 10.8017 0.666504 9.33331C0.666504 8.96512 0.964981 8.66665 1.33317 8.66665C1.70136 8.66665 1.99984 8.96512 1.99984 9.33331C1.99984 10.2325 2.87694 11 3.99984 11C5.12274 11 5.99984 10.2325 5.99984 9.33331C5.99984 8.46741 5.1865 7.72368 4.12356 7.66977L3.99984 7.66665C2.17722 7.66665 0.666504 6.34477 0.666504 4.66665Z" fill="#FF523A"/>
</svg>
