<svg width="40" height="40" viewBox="0 0 40 40" fill="none" xmlns="http://www.w3.org/2000/svg">
<rect width="40" height="40" rx="20" fill="#FF523A"/>
<path d="M30.2325 14.2153C29.1757 12.3592 27.7422 10.8897 25.9317 9.80651C24.1209 8.72325 22.144 8.18176 19.9996 8.18176C17.8556 8.18176 15.878 8.72342 14.0676 9.80651C12.2569 10.8897 10.8234 12.3592 9.76664 14.2153C8.70999 16.0714 8.18164 18.0983 8.18164 20.2958C8.18164 22.9356 8.93296 25.3094 10.436 27.4177C11.9388 29.5262 13.8803 30.9852 16.2602 31.7949C16.5373 31.8476 16.7423 31.8105 16.8757 31.6846C17.0091 31.5585 17.0757 31.4006 17.0757 31.2116C17.0757 31.18 17.073 30.8962 17.0679 30.3598C17.0626 29.8234 17.0602 29.3555 17.0602 28.9562L16.7062 29.0189C16.4806 29.0613 16.1959 29.0793 15.8522 29.0742C15.5086 29.0693 15.152 29.0324 14.7828 28.9637C14.4133 28.8957 14.0698 28.738 13.7517 28.4909C13.4338 28.2437 13.2082 27.9203 13.0748 27.5209L12.9209 27.1579C12.8183 26.9163 12.6569 26.6478 12.4363 26.3536C12.2157 26.059 11.9926 25.8594 11.7669 25.7542L11.6592 25.6752C11.5874 25.6226 11.5208 25.5593 11.4592 25.4857C11.3976 25.4122 11.3515 25.3386 11.3207 25.2649C11.2899 25.1911 11.3155 25.1306 11.3977 25.0832C11.4799 25.0357 11.6284 25.0127 11.8439 25.0127L12.1516 25.0598C12.3568 25.102 12.6106 25.2279 12.9133 25.4383C13.2159 25.6486 13.4646 25.922 13.6595 26.2583C13.8956 26.6896 14.18 27.0182 14.5136 27.2443C14.8469 27.4705 15.1829 27.5834 15.5214 27.5834C15.8599 27.5834 16.1522 27.5571 16.3985 27.5047C16.6446 27.4521 16.8754 27.3731 17.0909 27.268C17.1833 26.5631 17.4346 26.0216 17.8448 25.6431C17.2602 25.5801 16.7345 25.4853 16.2676 25.3592C15.801 25.2329 15.3188 25.0279 14.8213 24.7437C14.3236 24.4599 13.9107 24.1074 13.5825 23.687C13.2542 23.2663 12.9849 22.7141 12.7747 22.0307C12.5645 21.3471 12.4593 20.5584 12.4593 19.6646C12.4593 18.392 12.8646 17.309 13.6751 16.4151C13.2954 15.4583 13.3313 14.3857 13.7827 13.1974C14.0802 13.1026 14.5214 13.1737 15.1061 13.4103C15.6909 13.6469 16.119 13.8496 16.391 14.0177C16.6629 14.1857 16.8808 14.3281 17.045 14.4435C17.9993 14.1702 18.984 14.0335 19.9995 14.0335C21.0151 14.0335 22 14.1702 22.9543 14.4435L23.539 14.0651C23.9389 13.8126 24.4111 13.5813 24.9545 13.3709C25.4982 13.1607 25.9139 13.1028 26.2013 13.1976C26.6628 14.3859 26.7039 15.4584 26.3242 16.4152C27.1345 17.3092 27.54 18.3924 27.54 19.6648C27.54 20.5586 27.4345 21.3497 27.2246 22.0386C27.0144 22.7276 26.7427 23.2793 26.4094 23.6949C26.0757 24.1104 25.6601 24.4601 25.1627 24.7439C24.6651 25.0278 24.1827 25.2328 23.7161 25.3591C23.2492 25.4854 22.7236 25.5803 22.1389 25.6434C22.6722 26.1164 22.9388 26.8631 22.9388 27.8831V31.2111C22.9388 31.4002 23.003 31.558 23.1314 31.6842C23.2596 31.8101 23.4621 31.8472 23.7391 31.7944C26.1193 30.9848 28.0608 29.5258 29.5636 27.4173C31.0663 25.3089 31.8178 22.9352 31.8178 20.2954C31.8173 18.0981 31.2887 16.0714 30.2325 14.2153Z" fill="white"/>
</svg>
