<svg width="16" height="16" viewBox="0 0 16 16" fill="none" xmlns="http://www.w3.org/2000/svg">
<path fill-rule="evenodd" clip-rule="evenodd" d="M8.78578 1.51914C9.12583 1.68917 9.40156 1.9649 9.57158 2.30495L14.4809 12.1237C14.9149 12.9916 14.5631 14.0471 13.6951 14.4811C13.4512 14.6031 13.1821 14.6666 12.9093 14.6666H3.09061C2.12018 14.6666 1.3335 13.8799 1.3335 12.9095C1.3335 12.6367 1.39701 12.3677 1.519 12.1237L6.42836 2.30495C6.86235 1.43697 7.9178 1.08515 8.78578 1.51914ZM7.49165 2.98095L2.72684 12.5106C2.68738 12.5895 2.66683 12.6765 2.66683 12.7648C2.66683 13.0787 2.92134 13.3333 3.23529 13.3333H12.7649C12.8532 13.3333 12.9402 13.3127 13.0191 13.2732C13.2999 13.1328 13.4138 12.7914 13.2734 12.5106L8.50855 2.98095C8.45354 2.87093 8.36434 2.78173 8.25432 2.72672C7.97352 2.58632 7.63206 2.70014 7.49165 2.98095ZM8.00016 10.6666C8.36835 10.6666 8.66683 10.9651 8.66683 11.3333C8.66683 11.7014 8.36835 11.9999 8.00016 11.9999C7.63197 11.9999 7.3335 11.7014 7.3335 11.3333C7.3335 10.9651 7.63197 10.6666 8.00016 10.6666ZM8.00016 5.33325C8.36835 5.33325 8.66683 5.63173 8.66683 5.99992V8.66658C8.66683 9.03477 8.36835 9.33325 8.00016 9.33325C7.63197 9.33325 7.3335 9.03477 7.3335 8.66658V5.99992C7.3335 5.63173 7.63197 5.33325 8.00016 5.33325Z" fill="white"/>
</svg>
