<svg width="16" height="16" viewBox="0 0 16 16" fill="none" xmlns="http://www.w3.org/2000/svg">
<path fill-rule="evenodd" clip-rule="evenodd" d="M2.00016 12L2.07791 11.9955C2.38396 11.9599 2.6268 11.7171 2.66234 11.4111L2.66683 11.3333V2.66665H11.3335L11.4112 2.66216C11.7428 2.62365 12.0002 2.34187 12.0002 1.99998C12.0002 1.65809 11.7428 1.37631 11.4112 1.3378L11.3335 1.33331H2.00016L1.92242 1.3378C1.61636 1.37335 1.37353 1.61618 1.33798 1.92223L1.3335 1.99998V11.3333L1.33798 11.4111C1.37353 11.7171 1.61636 11.9599 1.92242 11.9955L2.00016 12ZM14.0002 14.6666L14.0779 14.6622C14.384 14.6266 14.6268 14.3838 14.6623 14.0777L14.6668 14V4.66665L14.6623 4.5889C14.6298 4.30835 14.423 4.08092 14.153 4.01759L14.0779 4.00446L14.0002 3.99998H4.66683L4.58908 4.00446C4.28303 4.04001 4.0402 4.28284 4.00465 4.5889L4.00016 4.66665V14L4.00465 14.0777C4.03723 14.3583 4.24399 14.5857 4.51397 14.649L4.58908 14.6622L4.66683 14.6666H14.0002ZM5.3335 5.33331V13.3333H13.3335V5.33331H5.3335Z" fill="#FF523A"/>
</svg>
