<svg width="16" height="16" viewBox="0 0 16 16" fill="none" xmlns="http://www.w3.org/2000/svg">
<path d="M11.4696 9.46975C11.1767 9.76265 11.1767 10.2375 11.4696 10.5304C11.616 10.6768 11.808 10.7501 11.9999 10.7501C12.1918 10.7501 12.3838 10.6769 12.5302 10.5304L14.7801 8.28055C14.7976 8.263 14.8142 8.2446 14.83 8.2254C14.8368 8.21705 14.8428 8.2082 14.8492 8.19965C14.8575 8.18865 14.8659 8.1779 14.8736 8.16645C14.8806 8.156 14.8867 8.14515 14.8931 8.13445C14.8992 8.12415 14.9057 8.1141 14.9114 8.1035C14.9173 8.0925 14.9222 8.0812 14.9275 8.07C14.9327 8.05905 14.9382 8.04825 14.9428 8.03705C14.9473 8.0261 14.951 8.01495 14.955 8.00385C14.9593 7.99185 14.9639 7.98 14.9676 7.96775C14.971 7.95665 14.9734 7.9454 14.9762 7.93415C14.9794 7.9217 14.9829 7.9093 14.9854 7.8966C14.988 7.88365 14.9895 7.87055 14.9914 7.8575C14.993 7.84635 14.9951 7.83535 14.9962 7.82405C14.9986 7.79985 14.9999 7.7755 14.9999 7.7512L14.9999 7.7501L14.9999 7.749C14.9999 7.72465 14.9986 7.70035 14.9962 7.6761C14.9951 7.66495 14.993 7.6541 14.9915 7.64305C14.9896 7.62985 14.988 7.61665 14.9854 7.60355C14.9829 7.59095 14.9795 7.57875 14.9763 7.5664C14.9735 7.55505 14.971 7.5436 14.9676 7.53235C14.9639 7.5203 14.9593 7.50865 14.9551 7.4968C14.951 7.4855 14.9473 7.47415 14.9427 7.46305C14.9382 7.45205 14.9328 7.4415 14.9277 7.4308C14.9223 7.41935 14.9172 7.4078 14.9113 7.39655C14.9058 7.3863 14.8995 7.37655 14.8935 7.3666C14.8869 7.35555 14.8807 7.3444 14.8735 7.33365C14.8662 7.3227 14.8581 7.31245 14.8503 7.3019C14.8435 7.29285 14.8372 7.2835 14.8299 7.2747C14.815 7.2565 14.7991 7.23905 14.7825 7.2223L14.7802 7.2198L12.5302 4.96975C12.2373 4.67685 11.7625 4.6769 11.4696 4.96975C11.1767 5.26265 11.1767 5.7375 11.4696 6.0304L12.4393 7.00015H5.75C5.3358 7.00015 5 7.33595 5 7.75015C5 8.16435 5.3358 8.50015 5.75 8.50015H12.4392L11.4696 9.46975Z" fill="#FF523A"/>
<path d="M1.75 1H9.25C9.6642 1 10 1.3358 10 1.75V4.75C10 5.1642 9.6642 5.5 9.25 5.5C8.8358 5.5 8.5 5.1642 8.5 4.75V2.5H2.5V13H8.5V10.7499C8.5 10.3357 8.8358 9.99995 9.25 9.99995C9.6642 9.99995 10 10.3357 10 10.7499V13.75C10 14.1642 9.6642 14.5 9.25 14.5H1.75C1.3358 14.5 1 14.1642 1 13.75V1.75C1 1.33575 1.3358 1 1.75 1Z" fill="#FF523A"/>
</svg>
