<svg width="20" height="20" viewBox="0 0 20 20" fill="none" xmlns="http://www.w3.org/2000/svg">
<path fill-rule="evenodd" clip-rule="evenodd" d="M9.16651 1.66667C13.3086 1.66667 16.6665 5.02453 16.6665 9.16667C16.6665 10.9373 16.0529 12.5647 15.0268 13.8476L18.0891 16.9107C18.4145 17.2362 18.4145 17.7638 18.0891 18.0893C17.7887 18.3897 17.316 18.4128 16.9891 18.1586L16.9106 18.0893L13.8475 15.0269C12.5645 16.0531 10.9372 16.6667 9.16651 16.6667C5.02437 16.6667 1.6665 13.3088 1.6665 9.16667C1.6665 5.02453 5.02437 1.66667 9.16651 1.66667ZM9.1665 3.33333C5.94484 3.33333 3.33317 5.945 3.33317 9.16667C3.33317 12.3883 5.94484 15 9.1665 15C12.3882 15 14.9998 12.3883 14.9998 9.16667C14.9998 5.945 12.3882 3.33333 9.1665 3.33333Z" fill="black"/>
</svg>
