<svg width="6" height="11" viewBox="0 0 6 11" fill="none" xmlns="http://www.w3.org/2000/svg">
<path fill-rule="evenodd" clip-rule="evenodd" d="M0.146447 3.85355C0.326689 4.0338 0.610304 4.04766 0.80645 3.89515L0.853553 3.85355L3 1.70711L5.14645 3.85355C5.34171 4.04882 5.65829 4.04882 5.85355 3.85355C6.0338 3.67331 6.04766 3.3897 5.89515 3.19355L5.85355 3.14645L3.35355 0.646447C3.17331 0.466205 2.8897 0.45234 2.69355 0.604852L2.64645 0.646447L0.146447 3.14645C-0.0488155 3.34171 -0.0488155 3.65829 0.146447 3.85355Z" fill="#1900CA"/>
<path d="M2.5 1.5C2.5 1.22386 2.72386 1 3 1C3.27614 1 3.5 1.22386 3.5 1.5V10.5C3.5 10.7761 3.27614 11 3 11C2.72386 11 2.5 10.7761 2.5 10.5V1.5Z" fill="#1900CA"/>
</svg>
