<svg width="16" height="16" viewBox="0 0 16 16" fill="none" xmlns="http://www.w3.org/2000/svg">
<path d="M7.9696 9.46975C7.6767 9.76265 7.6767 10.2375 7.9696 10.5304C8.11605 10.6768 8.308 10.7501 8.4999 10.7501C8.69185 10.7501 8.8838 10.6769 9.0302 10.5304L11.2801 8.28055C11.2976 8.263 11.3142 8.2446 11.33 8.2254C11.3368 8.21705 11.3428 8.2082 11.3492 8.19965C11.3575 8.18865 11.3659 8.1779 11.3736 8.16645C11.3806 8.156 11.3867 8.14515 11.3931 8.13445C11.3992 8.12415 11.4057 8.1141 11.4114 8.1035C11.4173 8.0925 11.4222 8.0812 11.4275 8.07C11.4327 8.05905 11.4382 8.04825 11.4428 8.03705C11.4473 8.0261 11.451 8.01495 11.455 8.00385C11.4593 7.99185 11.4639 7.98 11.4676 7.96775C11.471 7.95665 11.4734 7.9454 11.4762 7.93415C11.4794 7.9217 11.4829 7.9093 11.4854 7.8966C11.488 7.88365 11.4895 7.87055 11.4914 7.8575C11.493 7.84635 11.4951 7.83535 11.4962 7.82405C11.4986 7.79985 11.4999 7.7755 11.4999 7.7512L11.4999 7.7501L11.4999 7.749C11.4999 7.72465 11.4986 7.70035 11.4962 7.6761C11.4951 7.66495 11.493 7.6541 11.4915 7.64305C11.4896 7.62985 11.488 7.61665 11.4854 7.60355C11.4829 7.59095 11.4795 7.57875 11.4763 7.5664C11.4735 7.55505 11.471 7.5436 11.4676 7.53235C11.4639 7.5203 11.4593 7.50865 11.4551 7.4968C11.451 7.4855 11.4473 7.47415 11.4427 7.46305C11.4382 7.45205 11.4328 7.4415 11.4277 7.4308C11.4223 7.41935 11.4172 7.4078 11.4113 7.39655C11.4058 7.3863 11.3995 7.37655 11.3935 7.3666C11.3869 7.35555 11.3807 7.3444 11.3735 7.33365C11.3662 7.3227 11.3581 7.31245 11.3503 7.3019C11.3435 7.29285 11.3372 7.2835 11.3299 7.2747C11.315 7.2565 11.2991 7.23905 11.2825 7.2223L11.2802 7.2198L9.03025 4.96975C8.73735 4.67685 8.2625 4.6769 7.9696 4.96975C7.6767 5.26265 7.6767 5.7375 7.9696 6.0304L8.9393 7.00015H2.25C1.8358 7.00015 1.5 7.33595 1.5 7.75015C1.5 8.16435 1.8358 8.50015 2.25 8.50015H8.93925L7.9696 9.46975Z" fill="#FF523A"/>
<path d="M13.75 1H4.25C3.8358 1 3.5 1.3358 3.5 1.75V4.75C3.5 5.1642 3.8358 5.5 4.25 5.5C4.6642 5.5 5 5.1642 5 4.75V2.5H13V13H5V10.7499C5 10.3357 4.6642 9.99995 4.25 9.99995C3.8358 9.99995 3.5 10.3357 3.5 10.7499V13.75C3.5 14.1642 3.8358 14.5 4.25 14.5H13.75C14.1642 14.5 14.5 14.1642 14.5 13.75V1.75C14.5 1.33575 14.1642 1 13.75 1Z" fill="#FF523A"/>
</svg>
