<svg width="16" height="16" viewBox="0 0 16 16" fill="none" xmlns="http://www.w3.org/2000/svg">
<path fill-rule="evenodd" clip-rule="evenodd" d="M8.00016 10.6666C8.871 10.6666 9.61184 11.2232 9.88638 12L14.0002 11.9999C14.3684 11.9999 14.6668 12.2984 14.6668 12.6666C14.6668 13.0348 14.3684 13.3333 14.0002 13.3333L9.88615 13.3339C9.61142 14.1103 8.87075 14.6666 8.00016 14.6666C7.12957 14.6666 6.38891 14.1103 6.11418 13.3339L2.00016 13.3333C1.63197 13.3333 1.3335 13.0348 1.3335 12.6666C1.3335 12.2984 1.63197 11.9999 2.00016 11.9999L6.11395 12C6.38849 11.2232 7.12933 10.6666 8.00016 10.6666ZM8.00016 11.9999C7.63197 11.9999 7.3335 12.2984 7.3335 12.6666C7.3335 13.0348 7.63197 13.3333 8.00016 13.3333C8.36835 13.3333 8.66683 13.0348 8.66683 12.6666C8.66683 12.2984 8.36835 11.9999 8.00016 11.9999ZM12.6668 5.99992C13.7714 5.99992 14.6668 6.89535 14.6668 7.99992C14.6668 9.10449 13.7714 9.99992 12.6668 9.99992C11.7962 9.99992 11.0556 9.44367 10.7808 8.66719L2.00016 8.66658C1.63197 8.66658 1.3335 8.36811 1.3335 7.99992C1.3335 7.63173 1.63197 7.33325 2.00016 7.33325L10.7806 7.33331C11.0552 6.55649 11.796 5.99992 12.6668 5.99992ZM12.6668 7.33325C12.2986 7.33325 12.0002 7.63173 12.0002 7.99992C12.0002 8.36811 12.2986 8.66659 12.6668 8.66659C13.035 8.66659 13.3335 8.36811 13.3335 7.99992C13.3335 7.63173 13.035 7.33325 12.6668 7.33325ZM3.3335 1.33325C4.20803 1.33325 4.95146 1.89456 5.22319 2.67655C5.25882 2.66972 5.29579 2.66659 5.3335 2.66659H14.0002C14.3684 2.66659 14.6668 2.96506 14.6668 3.33325C14.6668 3.70144 14.3684 3.99992 14.0002 3.99992H5.3335C5.29579 3.99992 5.25882 3.99679 5.22282 3.99077C4.95146 4.77195 4.20803 5.33325 3.3335 5.33325C2.22893 5.33325 1.3335 4.43782 1.3335 3.33325C1.3335 2.22868 2.22893 1.33325 3.3335 1.33325ZM3.3335 2.66659C2.96531 2.66659 2.66683 2.96506 2.66683 3.33325C2.66683 3.70144 2.96531 3.99992 3.3335 3.99992C3.70169 3.99992 4.00016 3.70144 4.00016 3.33325C4.00016 2.96506 3.70169 2.66659 3.3335 2.66659Z" fill="black"/>
</svg>
