<svg width="18" height="4" viewBox="0 0 18 4" fill="none" xmlns="http://www.w3.org/2000/svg">
<path d="M14 2C14 3.10457 14.8954 4 16 4C17.1046 4 18 3.10457 18 2C18 0.895431 17.1046 -3.91405e-08 16 -8.74228e-08C14.8954 -1.35705e-07 14 0.895431 14 2Z" fill="#808080"/>
<path d="M7.00007 2C7.00007 3.10457 7.8955 4 9.00007 4C10.1046 4 11.0001 3.10457 11.0001 2C11.0001 0.89543 10.1046 -3.45117e-07 9.00007 -3.93399e-07C7.8955 -4.41682e-07 7.00007 0.89543 7.00007 2Z" fill="#808080"/>
<path d="M0.000142964 2C0.000142915 3.10457 0.895572 4 2.00014 4C3.10471 4 4.00014 3.10457 4.00014 2C4.00014 0.89543 3.10471 -6.51094e-07 2.00014 -6.99376e-07C0.895573 -7.47658e-07 0.000143012 0.89543 0.000142964 2Z" fill="#808080"/>
</svg>
