<svg width="6" height="11" viewBox="0 0 6 11" fill="none" xmlns="http://www.w3.org/2000/svg">
<path fill-rule="evenodd" clip-rule="evenodd" d="M0.146447 7.14645C0.326689 6.9662 0.610304 6.95234 0.80645 7.10485L0.853553 7.14645L3 9.29289L5.14645 7.14645C5.34171 6.95118 5.65829 6.95118 5.85355 7.14645C6.0338 7.32669 6.04766 7.6103 5.89515 7.80645L5.85355 7.85355L3.35355 10.3536C3.17331 10.5338 2.8897 10.5477 2.69355 10.3951L2.64645 10.3536L0.146447 7.85355C-0.0488155 7.65829 -0.0488155 7.34171 0.146447 7.14645Z" fill="#808080"/>
<path fill-rule="evenodd" clip-rule="evenodd" d="M0.146447 3.85355C0.326689 4.0338 0.610304 4.04766 0.80645 3.89515L0.853553 3.85355L3 1.70711L5.14645 3.85355C5.34171 4.04882 5.65829 4.04882 5.85355 3.85355C6.0338 3.67331 6.04766 3.3897 5.89515 3.19355L5.85355 3.14645L3.35355 0.646446C3.17331 0.466204 2.8897 0.452339 2.69355 0.604852L2.64645 0.646446L0.146447 3.14645C-0.0488155 3.34171 -0.0488155 3.65829 0.146447 3.85355Z" fill="#808080"/>
</svg>
