<svg width="235" height="44" viewBox="0 0 235 44" fill="none" xmlns="http://www.w3.org/2000/svg">
<g clip-path="url(#clip0)">
<mask id="mask0" mask-type="alpha" maskUnits="userSpaceOnUse" x="9" y="12" width="42" height="45">
<path d="M9.30454 22.6065C9.28232 24.8805 10.3354 29.7873 14.539 30.376C14.8989 34.8573 14.5234 36.6769 13.6558 39.6496V56.1861H49.9838C49.9838 56.1861 47.6287 48.4578 45.9602 45.5873C44.2916 42.7168 42.452 42.4957 38.0107 41.146C33.5694 39.7963 28.3439 38.7165 28.3439 38.7165C29.0804 37.1468 28.7238 35.7604 30.1957 34.7173C30.1957 34.7173 32.4163 34.9873 34.657 34.4963C36.8976 34.0053 37.7652 32.37 37.4053 31.0936C37.0454 29.8184 34.8369 30.3571 34.5104 29.4418C34.5104 29.4418 35.6434 27.8588 33.5694 27.27L32.7107 25.9203C32.7107 25.9203 33.2262 25.4171 33.0418 24.9638C32.8574 24.5095 31.8642 24.4117 32.4286 23.1609C32.9929 21.91 33.8527 21.0324 33.4295 20.1904C32.7718 19.1862 31.6676 19.2106 29.988 19.0995C28.2628 18.9806 27.5507 18.6207 27.7718 17.231C27.9928 15.8413 27.273 15.3581 26.3243 14.4427C25.3756 13.5262 24.1736 12.402 24.1736 12.402L13.3048 15.5669L9.30454 22.6065Z" fill="#C4C4C4" stroke="#1D1D1C" stroke-width="0.166632" stroke-miterlimit="10"/>
</mask>
<g mask="url(#mask0)">
<path d="M51.5536 10.5511H4.05469V58.6888H51.5536V10.5511Z" fill="#FFBDA3"/>
<path d="M10.6782 20.5785C11.0703 23.2279 12.9477 25.763 17.0146 27.0227L16.7469 29.8199C14.8662 30.7197 12.5756 30.262 12.5756 30.262L6.16357 23.7845L10.6782 20.5785Z" fill="#F9A177"/>
<path d="M18.889 29.4433C20.1643 31.2585 20.2954 31.8639 20.6553 32.927C21.0152 33.9901 21.6939 34.6122 30.1955 34.7177L29.6467 38.3614C29.6467 38.3614 25.1166 37.0606 22.3194 35.9453C20.5409 35.2143 19.5344 33.3814 19.019 32.3016C18.5035 31.2218 18.0747 29.2222 18.0747 29.2222L18.889 29.4433Z" fill="#F9A177"/>
<path d="M32.7341 19.1632C32.8074 20.6839 30.379 24.0088 28.6982 23.8988C28.6982 23.8988 29.4836 24.6353 30.4401 24.4143C31.3966 24.1932 31.8265 23.7155 33.2251 24.2543L35.8745 20.2718L32.7341 19.1632Z" fill="#F9A177"/>
<path d="M18.0267 26.6838C17.058 26.2539 15.6594 27.0515 15.5116 28.2535C15.3639 29.4555 16.9347 30.4864 18.321 30.0809C19.7074 29.6765 19.4497 28.0935 19.4497 28.0935L18.0267 26.6838Z" fill="#FFBDA3"/>
<path d="M24.2993 34.5954C26.4544 34.0311 28.8106 33.8344 30.1959 34.0555C31.5822 34.2766 36.4401 34.0799 37.4699 31.3816L38.6963 31.4883V38.1413L24.6081 35.8063L24.2993 34.5954Z" fill="#F9A177"/>
<path d="M32.6763 30.7163C31.8676 31.2296 33.014 32.1505 33.8027 31.5617C34.5915 30.9729 35.0003 30.2209 35.0003 29.8687C35.0003 29.8687 34.6648 29.8198 34.4648 29.4888C33.966 29.9743 33.2706 30.5375 32.6763 30.7163Z" fill="#F9A177"/>
<path d="M17.9072 27.5246C17.9072 27.1925 17.0807 27.1125 17.1274 28.0389C17.174 28.9654 17.7573 28.9999 18.346 28.7132C18.9348 28.4266 18.8493 28.0389 18.3582 27.9523C18.0705 27.8979 17.9072 27.8579 17.9072 27.5246Z" fill="#F9A177"/>
<path d="M32.7101 25.9227C31.6547 26.8914 30.0484 28.1312 25.436 27.198C25.436 27.198 28.1221 30.1174 30.4539 30.1541C32.1169 30.1541 33.2511 28.7555 33.6554 28.3267C34.0598 27.8979 33.7709 27.5879 33.5699 27.2713C33.3688 26.9547 32.7101 25.9227 32.7101 25.9227Z" fill="white"/>
<path d="M31.3705 23.5459C30.785 23.9303 30.3896 23.4559 30.9617 23.0227C31.5338 22.5895 31.6326 22.2862 31.7471 21.9763C31.8615 21.6663 32.1803 21.7719 32.107 22.1973C32.0326 22.6217 31.8693 23.2193 31.3705 23.5459Z" fill="#C17145"/>
<path d="M26.3809 17.1676L26.2665 19.1961L21.5319 19.7515L19.4868 22.1233L21.0076 19.0239L25.7844 17.9441L26.3809 17.1676Z" fill="#C17145"/>
<path d="M21.5229 22.6384C21.7274 22.9906 23.4281 23.2216 24.1402 22.7417C24.8511 22.2618 24.4212 21.9997 25.2544 21.2843C25.7521 20.8421 25.5876 20.4544 25.441 20.3556L22.7838 21.2632L21.5229 22.6384Z" fill="white"/>
<path d="M22.7375 21.2854C21.781 22.0097 22.4187 23.285 23.314 23.1128C24.2094 22.9406 24.4671 22.1319 24.1972 21.6287C23.9283 21.1254 23.1918 21.0888 22.7375 21.2854Z" fill="#577791" stroke="#010202" stroke-width="0.166632" stroke-miterlimit="10"/>
<path d="M22.7542 22.5852C23.2818 22.6096 23.0852 21.9964 22.7542 21.972C22.3254 21.9409 22.2265 22.5607 22.7542 22.5852Z" fill="#F8FBF7"/>
<path d="M21.287 22.4264C20.8693 22.7852 21.3114 22.9841 21.7613 22.5864C22.2112 22.1887 22.4323 21.8043 22.9344 21.5266C23.4365 21.2489 24.8851 20.9945 25.4905 20.5535C25.7271 20.3657 25.4983 20.0302 25.1228 20.2713C24.2641 20.759 23.1033 20.8534 22.5545 21.1745C22.0068 21.4966 21.8669 21.9276 21.287 22.4264Z" fill="#010202"/>
</g>
<path d="M9.30454 22.6065C9.28232 24.8805 10.3354 29.7873 14.539 30.376C14.8989 34.8573 14.5234 36.6769 13.6558 39.6496V56.1861H49.9838C49.9838 56.1861 47.6287 48.4578 45.9602 45.5873C44.2916 42.7168 42.452 42.4957 38.0107 41.146C33.5694 39.7963 28.3439 38.7165 28.3439 38.7165C29.0804 37.1468 28.7238 35.7604 30.1957 34.7173C30.1957 34.7173 32.4163 34.9873 34.657 34.4963C36.8976 34.0053 37.7652 32.37 37.4053 31.0936C37.0454 29.8184 34.8369 30.3571 34.5104 29.4418C34.5104 29.4418 35.6434 27.8588 33.5694 27.27L32.7107 25.9203C32.7107 25.9203 33.2262 25.4171 33.0418 24.9638C32.8574 24.5095 31.8642 24.4117 32.4286 23.1609C32.9929 21.91 33.8527 21.0324 33.4295 20.1904C32.7718 19.1862 31.6676 19.2106 29.988 19.0995C28.2628 18.9806 27.5507 18.6207 27.7718 17.231C27.9928 15.8413 27.273 15.3581 26.3243 14.4427C25.3756 13.5262 24.1736 12.402 24.1736 12.402L13.3048 15.5669L9.30454 22.6065Z" stroke="#1D1D1C" stroke-width="0.246297" stroke-miterlimit="10"/>
<path d="M20.8117 45.1692C19.9364 44.6049 14.6864 42.5453 13.6555 39.6493C14.3409 37.7108 14.6408 35.539 14.6741 33.2051C10.4495 33.5972 8.20884 35.789 7.45677 37.703C6.70471 39.6171 5.91932 40.2625 3.39207 40.7046C0.864827 41.1467 -0.803711 41.2934 -0.803711 41.2934V45.9791L20.8117 45.1692Z" fill="#FF6FB4"/>
<path d="M31.6485 44.638C31.6485 44.638 31.6485 41.7464 28.3447 38.717C29.1057 37.1096 28.6024 36.6052 29.6445 35.2133C30.7898 35.8465 31.2474 38.4793 33.968 39.6146C37.4384 41.0621 38.8858 40.7288 39.328 41.2931C39.7701 41.8574 38.9314 42.0419 38.9192 42.5562C38.9069 43.0716 40.0112 42.9483 40.0478 43.476C40.0845 44.0037 37.9949 44.6369 37.9949 44.6369H31.6485V44.638Z" fill="#FF6FB4"/>
<mask id="mask1" mask-type="alpha" maskUnits="userSpaceOnUse" x="7" y="0" width="19" height="23">
<path d="M9.25594 22.7808C7.68627 22.7219 6.13992 17.2364 11.3411 12.3285C16.5422 7.42069 18.9472 5.36112 20.0015 3.12826L20.2714 3.54484C21.0446 2.73501 21.2901 1.90074 21.6456 0.134447C21.6456 0.134447 22.4676 1.5697 22.6387 2.73501L23.203 1.45972C25.3337 5.49998 26.0124 10.5134 24.405 13.7394C23.534 15.4279 21.5711 13.8371 17.8786 14.9413C11.7343 17.0642 10.3357 22.8552 9.25594 22.7808Z" fill="#C4C4C4" stroke="#010202" stroke-width="0.166632" stroke-miterlimit="10" stroke-linecap="round" stroke-linejoin="round"/>
</mask>
<g mask="url(#mask1)">
<path d="M4.10352 -1.11093L4.69228 25.5823H29.6481V-0.882089L4.10352 -1.11093Z" fill="#FFD577"/>
<path d="M8.84846 15.6415C9.41612 16.4035 8.38522 18.5619 9.30614 18.9297C10.2271 19.2974 12.591 12.2266 18.0821 14.9949C11.4823 17.1667 10.6036 22.7933 9.25726 22.891C8.14083 22.9744 6.73779 19.6784 8.84846 15.6415Z" fill="#F8BE3D"/>
</g>
<path d="M9.25594 22.7808C7.68627 22.7219 6.13992 17.2364 11.3411 12.3285C16.5422 7.42069 18.9472 5.36113 20.0015 3.12826L20.2714 3.54484C21.0446 2.73501 21.2901 1.90074 21.6456 0.134447C21.6456 0.134447 22.4676 1.5697 22.6387 2.73501L23.203 1.45972C25.3337 5.49998 26.0124 10.5134 24.405 13.7394C23.534 15.4279 21.5711 13.8371 17.8786 14.9413C11.7343 17.0642 10.3357 22.8552 9.25594 22.7808Z" stroke="#010202" stroke-width="0.246297" stroke-miterlimit="10" stroke-linecap="round" stroke-linejoin="round"/>
<path d="M32.711 25.9223C31.8157 26.8055 30.2693 28.0941 25.437 27.1976C25.437 27.1976 27.1922 29.1939 29.2651 29.9193C31.338 30.6447 32.5422 29.4061 33.0743 28.9362C33.6064 28.4663 34.1152 28.1274 33.5709 27.2721" stroke="#010202" stroke-width="0.246297" stroke-miterlimit="10" stroke-linecap="round" stroke-linejoin="round"/>
<path d="M7.9468 43.0768C7.9468 43.0768 6.0983 41.4827 7.15364 38.3945C8.20897 35.3062 11.005 33.6143 14.6743 33.2055C14.6743 35.0618 14.6043 36.6893 13.6556 39.6497" stroke="#010202" stroke-width="0.246297" stroke-miterlimit="10" stroke-linecap="round"/>
<path d="M19.02 44.2376C16.0762 42.7413 13.2456 40.9716 13.1646 37.4235" stroke="#010202" stroke-width="0.246297" stroke-miterlimit="10" stroke-linecap="round"/>
<path d="M7.05179 38.7218C6.13198 39.9604 5.39547 40.7947 -0.803223 41.2934" stroke="#010202" stroke-width="0.246297" stroke-miterlimit="10" stroke-linecap="round"/>
<path d="M28.3433 38.7174C30.3062 40.517 31.2715 42.5444 31.5659 43.8208" stroke="#010202" stroke-width="0.246297" stroke-miterlimit="10" stroke-linecap="round"/>
<path d="M39.7486 43.821C40.1863 43.5432 40.1285 43.2955 39.5931 43.06C39.0565 42.8245 38.6377 42.7545 39.1898 42.0924C39.742 41.4303 39.4453 41.196 38.2045 40.8782C36.9648 40.5616 33.6255 39.9729 32.1569 38.4132C30.6883 36.8535 30.725 35.9215 29.6452 35.215C28.7009 36.1892 29.032 38.0799 27.5479 40.3495" stroke="#010202" stroke-width="0.246297" stroke-miterlimit="10" stroke-linecap="round"/>
<path d="M30.1961 34.7183C27.4111 34.5305 25.3182 34.6327 22.8232 34.295C20.3293 33.9573 20.6236 32.4532 20.2304 31.6023C19.8382 30.7513 19.0195 29.5905 19.0195 29.5905" stroke="#010202" stroke-width="0.246297" stroke-miterlimit="10" stroke-linecap="round"/>
<path d="M17.941 26.6791C16.8113 26.3025 15.4882 27.2112 15.5115 28.2532C15.5349 29.2963 16.3536 30.1706 17.7433 30.1672C19.133 30.1639 19.3263 28.8953 19.3996 28.6342" stroke="#010202" stroke-width="0.246297" stroke-miterlimit="10" stroke-linecap="round"/>
<path d="M14.5397 30.376C14.4908 29.7873 14.1143 29.3296 14.1143 29.3296" stroke="#010202" stroke-width="0.246297" stroke-miterlimit="10" stroke-linecap="round"/>
<path d="M25.073 26.6791C25.9395 27.1124 24.9908 28.4132 25.073 28.9364" stroke="#010202" stroke-width="0.246297" stroke-miterlimit="10" stroke-linecap="round"/>
<path d="M34.5102 29.4427C33.2749 30.7058 32.1162 30.8902 32.1162 30.8902" stroke="#010202" stroke-width="0.246297" stroke-miterlimit="10" stroke-linecap="round"/>
<path d="M24.1225 39.6332C23.2394 38.4223 22.9117 36.9449 23.1572 35.2141" stroke="#010202" stroke-width="0.246297" stroke-miterlimit="10" stroke-linecap="round"/>
</g>
<path d="M62.2399 30.2299L63.9943 41.5538H68.5558L71.4585 23.3717H68.2687L66.4505 37.088H65.7487L63.8986 25.1581H60.0708L58.2207 37.088H57.5189L55.7007 23.3717H52.3833L55.286 41.5538H59.8475L61.6019 30.2299H62.2399Z" fill="url(#paint0_linear)"/>
<path d="M78.0061 34.1852C79.2502 32.2713 80.7494 30.5488 82.6633 30.5488C84.7686 30.5488 85.3746 31.9523 85.3746 33.8343V41.5537H88.6283V33.1325C88.6283 29.528 86.3316 27.5822 83.1418 27.5822C81.3554 27.5822 79.8243 28.3797 78.7717 29.5599H78.0061V22H74.7525V41.5537H78.0061V34.1852Z" fill="url(#paint1_linear)"/>
<path d="M92.4706 30.3252L94.0336 32.9408C95.7242 31.4097 97.7976 30.4528 99.9348 30.4528C102.232 30.4528 102.933 31.2183 102.933 32.3986V32.5262L96.6174 34.1211C93.6828 34.8547 92.1835 36.2902 92.1835 38.3316C92.1835 40.724 93.9698 42 96.7131 42C98.8822 42 100.7 40.9792 102.168 39.9904H103.157C103.667 41.2344 104.847 42 106.123 42C107.559 42 108.484 41.4896 110.015 40.118L108.579 38.0127C107.622 38.7463 107.24 39.0653 106.793 39.0653C106.155 39.0653 106.027 38.6506 106.027 38.0446V32.5262C106.027 29.751 104.337 27.5819 100.286 27.5819C97.4468 27.5819 94.6397 28.4113 92.4706 30.3252ZM102.933 36.641C101.147 38.0446 99.0417 39.3205 97.1597 39.3205C96.1708 39.3205 95.5648 38.9377 95.5648 38.0446C95.5648 37.1833 96.3941 36.7048 97.2554 36.4815L102.2 35.2694L102.933 35.716V36.641Z" fill="url(#paint2_linear)"/>
<path d="M114.022 31.5692V35.716C114.022 40.0861 116.638 42 120.338 42C122.89 42 125.251 40.6284 126.814 38.4274L124.868 36.1945C123.496 38.0127 122.348 39.0654 120.37 39.0654C118.137 39.0654 117.276 37.598 117.276 35.2695V31.5692L118.074 30.7718H124.007V28.0285H117.308V23.3714H114.022V28.0285H110.035V30.7718H113.225L114.022 31.5692Z" fill="url(#paint3_linear)"/>
<path d="M138.355 26.3698H144.225V23.3714H127.255V26.3698H133.124L134.081 27.3268V41.5534H137.398V27.3268L138.355 26.3698Z" fill="url(#paint4_linear)"/>
<path d="M143.753 34.7909C143.753 38.8739 147.102 42 151.536 42C155.97 42 159.319 38.8739 159.319 34.7909C159.319 30.7079 155.97 27.5819 151.536 27.5819C147.102 27.5819 143.753 30.7079 143.753 34.7909ZM155.97 34.7909C155.97 37.279 154.215 39.0653 151.536 39.0653C148.857 39.0653 147.102 37.279 147.102 34.7909C147.102 32.3029 148.857 30.5166 151.536 30.5166C154.215 30.5166 155.97 32.3029 155.97 34.7909Z" fill="url(#paint5_linear)"/>
<path d="M166.989 41.5534V33.7064H176.75V30.708H166.989V27.3268L167.946 26.3698H178.153V23.3714H163.767V41.5534H166.989Z" fill="url(#paint6_linear)"/>
<path d="M180.566 30.3252L182.129 32.9408C183.82 31.4097 185.893 30.4528 188.031 30.4528C190.327 30.4528 191.029 31.2183 191.029 32.3986V32.5262L184.713 34.1211C181.778 34.8547 180.279 36.2902 180.279 38.3316C180.279 40.724 182.066 42 184.809 42C186.978 42 188.796 40.9792 190.263 39.9904H191.252C191.763 41.2344 192.943 42 194.219 42C195.654 42 196.579 41.4896 198.11 40.118L196.675 38.0127C195.718 38.7463 195.335 39.0653 194.889 39.0653C194.251 39.0653 194.123 38.6506 194.123 38.0446V32.5262C194.123 29.751 192.433 27.5819 188.381 27.5819C185.542 27.5819 182.735 28.4113 180.566 30.3252ZM191.029 36.641C189.243 38.0446 187.137 39.3205 185.255 39.3205C184.267 39.3205 183.66 38.9377 183.66 38.0446C183.66 37.1833 184.49 36.7048 185.351 36.4815L190.295 35.2694L191.029 35.716V36.641Z" fill="url(#paint7_linear)"/>
<path d="M215.605 32.3986C214.871 29.5596 213.308 27.5819 210.405 27.5819C208.3 27.5819 206.482 28.7622 204.887 30.5166H204.153V28.0285H200.9V41.5534H204.153V34.9823C206.482 32.2391 208.14 30.6442 209.799 30.6442C211.554 30.6442 212.192 32.0477 212.638 33.7064L215.605 32.3986Z" fill="url(#paint8_linear)"/>
<path d="M234.567 41.5534V31.2821C234.567 29.2087 233.419 27.5819 231.473 27.5819C229.942 27.5819 228.921 28.5389 228.123 29.5596H227.517C227.071 28.4113 226.21 27.5819 224.87 27.5819C223.339 27.5819 222.382 28.5389 221.584 29.5596H221.042V28.0285H217.884V41.5534H221.042V33.6426C221.967 32.0477 222.701 30.6761 223.658 30.6761C224.551 30.6761 224.647 31.5373 224.647 32.3986V41.5534H227.804V33.6426C228.73 32.0477 229.463 30.6761 230.42 30.6761C231.313 30.6761 231.409 31.5373 231.409 32.3986V41.5534H234.567Z" fill="url(#paint9_linear)"/>
<rect x="52.0815" y="4" width="84.4082" height="12.5714" rx="1.57143" fill="#25008E"/>
<path d="M58.8591 8.62087H59.8753C59.8446 7.50417 58.8557 6.69388 57.4371 6.69388C56.0356 6.69388 54.9615 7.49396 54.9615 8.69577C54.9615 9.66608 55.6571 10.2346 56.779 10.5377L57.6042 10.7624C58.351 10.9598 58.9273 11.205 58.9273 11.8246C58.9273 12.5055 58.276 12.9549 57.3792 12.9549C56.5676 12.9549 55.8924 12.594 55.831 11.8348H54.7739C54.8421 13.0979 55.8208 13.8776 57.386 13.8776C59.0262 13.8776 59.9707 13.0162 59.9707 11.8348C59.9707 10.5785 58.8489 10.0917 57.9623 9.87376L57.2803 9.69672C56.7347 9.55713 56.0083 9.30179 56.0118 8.63449C56.0118 8.04209 56.5539 7.6029 57.4133 7.6029C58.2146 7.6029 58.7841 7.97741 58.8591 8.62087Z" fill="white"/>
<path d="M63.5464 13.8673C64.7842 13.8673 65.5855 13.1251 65.6981 12.1072H64.7057C64.5762 12.6723 64.1363 13.006 63.5532 13.006C62.6904 13.006 62.1346 12.2876 62.1346 11.1471C62.1346 10.027 62.7007 9.32222 63.5532 9.32222C64.2011 9.32222 64.5966 9.73077 64.7057 10.221H65.6981C65.5889 9.16561 64.7262 8.46426 63.5361 8.46426C62.0596 8.46426 61.1048 9.57416 61.1048 11.1709C61.1048 12.7472 62.0255 13.8673 63.5464 13.8673Z" fill="white"/>
<path d="M68.5047 13.8776C69.3708 13.8776 69.8585 13.4384 70.0528 13.0468H70.0938V13.7618H71.0895V10.2891C71.0895 8.76727 69.8892 8.46426 69.0571 8.46426C68.1092 8.46426 67.2362 8.84558 66.8952 9.79886L67.8534 10.0168C68.0034 9.64565 68.3854 9.28817 69.0708 9.28817C69.7289 9.28817 70.0665 9.63204 70.0665 10.2244V10.2483C70.0665 10.6194 69.6846 10.6126 68.7434 10.7215C67.7511 10.8373 66.7349 11.096 66.7349 12.2842C66.7349 13.3124 67.509 13.8776 68.5047 13.8776ZM68.7264 13.0605C68.1501 13.0605 67.7341 12.8017 67.7341 12.2978C67.7341 11.7531 68.2183 11.559 68.8082 11.4807C69.139 11.4365 69.9233 11.3479 70.0699 11.2015V11.8757C70.0699 12.4953 69.5754 13.0605 68.7264 13.0605Z" fill="white"/>
<path d="M73.6591 10.6568C73.6591 9.82269 74.1706 9.34605 74.8799 9.34605C75.5722 9.34605 75.9916 9.79886 75.9916 10.5581V13.7618H77.0112V10.4355C77.0112 9.14177 76.2985 8.46426 75.2277 8.46426C74.44 8.46426 73.9251 8.82855 73.683 9.3835H73.6182V8.53235H72.6396V13.7618H73.6591V10.6568Z" fill="white"/>
<path d="M83.3363 13.8605C83.9672 13.8605 84.6662 13.6494 85.1368 13.2103L85.6074 13.7618H86.7599L85.7676 12.577C86.0643 12.1821 86.3473 11.5624 86.3473 10.5955H85.4266C85.4266 11.062 85.3175 11.4773 85.1368 11.8246L83.7387 10.1563L84.2161 9.80567C84.7958 9.3835 85.1436 8.89665 85.1436 8.23275C85.1436 7.41905 84.4855 6.71431 83.4113 6.71431C82.3474 6.71431 81.6484 7.39863 81.6484 8.36212C81.6484 8.98516 81.9757 9.47883 82.4156 10.0133C81.6177 10.5649 81.0755 11.079 81.0755 11.9097C81.0755 13.0298 81.9314 13.8605 83.3363 13.8605ZM84.5639 12.5361C84.2025 12.8357 83.7694 12.9992 83.3397 12.9992C82.5827 12.9992 82.0883 12.4851 82.0883 11.8825C82.0883 11.668 82.269 11.239 82.8146 10.8373L82.9987 10.7011L84.5639 12.5361ZM83.176 9.47883C82.8589 9.09071 82.61 8.73322 82.61 8.37915C82.61 7.974 82.9442 7.56545 83.4352 7.56545C83.9058 7.56545 84.2127 7.93315 84.2127 8.25999C84.2127 8.67535 83.9842 8.92729 83.6057 9.17582L83.176 9.47883Z" fill="white"/>
<path d="M96.3664 9.05666C96.1277 7.56545 94.958 6.69388 93.4815 6.69388C91.6742 6.69388 90.3409 8.0455 90.3409 10.2755C90.3409 12.5055 91.6674 13.8571 93.4815 13.8571C95.016 13.8571 96.1379 12.897 96.3664 11.5182L95.3024 11.5148C95.1217 12.4068 94.3715 12.897 93.4883 12.897C92.2914 12.897 91.3878 11.9812 91.3878 10.2755C91.3878 8.58342 92.288 7.65397 93.4917 7.65397C94.3817 7.65397 95.1285 8.15445 95.3024 9.05666H96.3664Z" fill="white"/>
<path d="M98.757 10.6568C98.757 9.82269 99.2855 9.34605 100.012 9.34605C100.714 9.34605 101.134 9.79205 101.134 10.5581V13.7618H102.153V10.4355C102.153 9.13156 101.437 8.46426 100.36 8.46426C99.5447 8.46426 99.0537 8.81834 98.8081 9.3835H98.7433V6.78921H97.7374V13.7618H98.757V10.6568Z" fill="white"/>
<path d="M105.963 13.8673C107.106 13.8673 107.914 13.3056 108.146 12.4544L107.181 12.2808C106.997 12.7745 106.553 13.0264 105.974 13.0264C105.101 13.0264 104.514 12.4612 104.487 11.4535H108.211V11.0926C108.211 9.20306 107.078 8.46426 105.892 8.46426C104.432 8.46426 103.471 9.57416 103.471 11.1811C103.471 12.8051 104.419 13.8673 105.963 13.8673ZM104.49 10.6909C104.531 9.94866 105.07 9.3052 105.899 9.3052C106.69 9.3052 107.208 9.89078 107.211 10.6909H104.49Z" fill="white"/>
<path d="M111.74 13.8673C112.978 13.8673 113.779 13.1251 113.892 12.1072H112.9C112.77 12.6723 112.33 13.006 111.747 13.006C110.884 13.006 110.328 12.2876 110.328 11.1471C110.328 10.027 110.894 9.32222 111.747 9.32222C112.395 9.32222 112.79 9.73077 112.9 10.221H113.892C113.783 9.16561 112.92 8.46426 111.73 8.46426C110.253 8.46426 109.299 9.57416 109.299 11.1709C109.299 12.7472 110.219 13.8673 111.74 13.8673Z" fill="white"/>
<path d="M115.174 13.7618H116.194V11.9063L116.702 11.399L118.482 13.7618H119.733L117.469 10.776L119.59 8.53235H118.369L116.282 10.7453H116.194V6.78921H115.174V13.7618Z" fill="white"/>
<path d="M125.651 13.8673C127.128 13.8673 128.093 12.7881 128.093 11.1709C128.093 9.54352 127.128 8.46426 125.651 8.46426C124.175 8.46426 123.209 9.54352 123.209 11.1709C123.209 12.7881 124.175 13.8673 125.651 13.8673ZM125.654 13.0128C124.689 13.0128 124.239 12.1719 124.239 11.1675C124.239 10.1666 124.689 9.31541 125.654 9.31541C126.613 9.31541 127.063 10.1666 127.063 11.1675C127.063 12.1719 126.613 13.0128 125.654 13.0128Z" fill="white"/>
<path d="M130.442 10.6568C130.442 9.82269 130.954 9.34605 131.663 9.34605C132.355 9.34605 132.775 9.79886 132.775 10.5581V13.7618H133.794V10.4355C133.794 9.14177 133.082 8.46426 132.011 8.46426C131.223 8.46426 130.708 8.82855 130.466 9.3835H130.401V8.53235H129.423V13.7618H130.442V10.6568Z" fill="white"/>
<defs>
<linearGradient id="paint0_linear" x1="164.699" y1="22" x2="60.5006" y2="50.991" gradientUnits="userSpaceOnUse">
<stop stop-color="#0F9A68"/>
<stop offset="1" stop-color="#007580"/>
</linearGradient>
<linearGradient id="paint1_linear" x1="164.699" y1="22" x2="60.5006" y2="50.991" gradientUnits="userSpaceOnUse">
<stop stop-color="#0F9A68"/>
<stop offset="1" stop-color="#007580"/>
</linearGradient>
<linearGradient id="paint2_linear" x1="164.699" y1="22" x2="60.5006" y2="50.991" gradientUnits="userSpaceOnUse">
<stop stop-color="#0F9A68"/>
<stop offset="1" stop-color="#007580"/>
</linearGradient>
<linearGradient id="paint3_linear" x1="164.699" y1="22" x2="60.5006" y2="50.991" gradientUnits="userSpaceOnUse">
<stop stop-color="#0F9A68"/>
<stop offset="1" stop-color="#007580"/>
</linearGradient>
<linearGradient id="paint4_linear" x1="164.699" y1="22" x2="60.5006" y2="50.991" gradientUnits="userSpaceOnUse">
<stop stop-color="#0F9A68"/>
<stop offset="1" stop-color="#007580"/>
</linearGradient>
<linearGradient id="paint5_linear" x1="164.699" y1="22" x2="60.5006" y2="50.991" gradientUnits="userSpaceOnUse">
<stop stop-color="#0F9A68"/>
<stop offset="1" stop-color="#007580"/>
</linearGradient>
<linearGradient id="paint6_linear" x1="164.699" y1="22" x2="60.5006" y2="50.991" gradientUnits="userSpaceOnUse">
<stop stop-color="#0F9A68"/>
<stop offset="1" stop-color="#007580"/>
</linearGradient>
<linearGradient id="paint7_linear" x1="164.699" y1="22" x2="60.5006" y2="50.991" gradientUnits="userSpaceOnUse">
<stop stop-color="#0F9A68"/>
<stop offset="1" stop-color="#007580"/>
</linearGradient>
<linearGradient id="paint8_linear" x1="164.699" y1="22" x2="60.5006" y2="50.991" gradientUnits="userSpaceOnUse">
<stop stop-color="#0F9A68"/>
<stop offset="1" stop-color="#007580"/>
</linearGradient>
<linearGradient id="paint9_linear" x1="164.699" y1="22" x2="60.5006" y2="50.991" gradientUnits="userSpaceOnUse">
<stop stop-color="#0F9A68"/>
<stop offset="1" stop-color="#007580"/>
</linearGradient>
<clipPath id="clip0">
<rect width="43.102" height="43.102" fill="white"/>
</clipPath>
</defs>
</svg>
