<svg width="230" height="40" viewBox="0 0 230 40" fill="none" xmlns="http://www.w3.org/2000/svg">
<rect width="230" height="40" rx="8" fill="url(#paint0_linear)"/>
<path d="M50.4385 32.0001H52.4136V26.292H57.9747V24.5981H52.4136V20.6095H58.5564V18.9092H50.4385V32.0001Z" fill="white"/>
<path d="M63.654 32.2174C65.2776 32.2174 66.1917 31.3928 66.556 30.6578H66.6327V32.0001H68.4992V25.4802C68.4992 22.623 66.2492 22.0541 64.6895 22.0541C62.9126 22.0541 61.2762 22.77 60.637 24.5597L62.4331 24.9688C62.7144 24.2721 63.4303 23.6009 64.7151 23.6009C65.9488 23.6009 66.5816 24.2465 66.5816 25.3588V25.4035C66.5816 26.1002 65.8657 26.0874 64.1015 26.292C62.2414 26.5093 60.3366 26.9951 60.3366 29.2259C60.3366 31.1563 61.7876 32.2174 63.654 32.2174ZM64.0695 30.6833C62.9893 30.6833 62.2094 30.1975 62.2094 29.2515C62.2094 28.2288 63.1171 27.8644 64.2229 27.7174C64.843 27.6343 66.3131 27.4681 66.588 27.1933V28.4589C66.588 29.6222 65.6611 30.6833 64.0695 30.6833Z" fill="white"/>
<path d="M71.0448 32.0001H72.9561V26.0044C72.9561 24.7195 73.9468 23.7927 75.3019 23.7927C75.6982 23.7927 76.1457 23.863 76.2991 23.9078V22.0796C76.1073 22.0541 75.7302 22.0349 75.4873 22.0349C74.3367 22.0349 73.3524 22.6869 72.9944 23.7416H72.8921V22.1819H71.0448V32.0001Z" fill="white"/>
<path d="M77.953 32.0001H79.8643V25.9468C79.8643 24.6237 80.7911 23.7032 81.8778 23.7032C82.9388 23.7032 83.6739 24.4063 83.6739 25.4738V32.0001H85.5787V25.7423C85.5787 24.5597 86.301 23.7032 87.5475 23.7032C88.5574 23.7032 89.3884 24.2657 89.3884 25.5953V32.0001H91.2996V25.4163C91.2996 23.1727 90.0468 22.0541 88.2698 22.0541C86.8572 22.0541 85.7961 22.7316 85.3231 23.7799H85.2208C84.7925 22.7061 83.8912 22.0541 82.5809 22.0541C81.2833 22.0541 80.3181 22.6997 79.909 23.7799H79.7876V22.1819H77.953V32.0001Z" fill="white"/>
<path d="M98.0928 32.1982C100.234 32.1982 101.749 31.1436 102.184 29.5455L100.375 29.2195C100.03 30.1464 99.1986 30.6194 98.1119 30.6194C96.4756 30.6194 95.3762 29.5583 95.325 27.6663H102.305V26.9887C102.305 23.4411 100.183 22.0541 97.9585 22.0541C95.2227 22.0541 93.4202 24.1379 93.4202 27.1549C93.4202 30.2039 95.1972 32.1982 98.0928 32.1982ZM95.3314 26.2345C95.4081 24.841 96.4181 23.6329 97.9713 23.6329C99.4543 23.6329 100.426 24.7323 100.432 26.2345H95.3314Z" fill="white"/>
<path d="M104.426 32.0001H106.337V26.0044C106.337 24.7195 107.328 23.7927 108.683 23.7927C109.079 23.7927 109.527 23.863 109.68 23.9078V22.0796C109.488 22.0541 109.111 22.0349 108.868 22.0349C107.718 22.0349 106.733 22.6869 106.375 23.7416H106.273V22.1819H104.426V32.0001Z" fill="white"/>
<path d="M118.691 24.5789C118.295 23.0512 117.1 22.0541 114.977 22.0541C112.759 22.0541 111.187 23.2238 111.187 24.9624C111.187 26.3559 112.031 27.2828 113.872 27.6919L115.533 28.0562C116.479 28.2671 116.921 28.689 116.921 29.3026C116.921 30.0633 116.109 30.6578 114.856 30.6578C113.712 30.6578 112.977 30.1656 112.747 29.2004L110.899 29.4816C111.219 31.2203 112.663 32.1982 114.869 32.1982C117.24 32.1982 118.883 30.939 118.883 29.162C118.883 27.7749 118.001 26.9184 116.198 26.5029L114.639 26.145C113.558 25.8893 113.092 25.5249 113.098 24.8602C113.092 24.1059 113.91 23.569 114.997 23.569C116.185 23.569 116.735 24.2274 116.959 24.8857L118.691 24.5789Z" fill="white"/>
<path d="M130.331 22.1819H128.318V19.8296H126.406V22.1819H124.968V23.716H126.406V29.5136C126.4 31.297 127.761 32.1599 129.27 32.1279C129.877 32.1215 130.286 32.0065 130.51 31.9234L130.165 30.3445C130.037 30.3701 129.801 30.4276 129.494 30.4276C128.874 30.4276 128.318 30.2231 128.318 29.1173V23.716H130.331V22.1819Z" fill="white"/>
<path d="M136.475 32.1982C139.243 32.1982 141.052 30.172 141.052 27.1357C141.052 24.0803 139.243 22.0541 136.475 22.0541C133.708 22.0541 131.899 24.0803 131.899 27.1357C131.899 30.172 133.708 32.1982 136.475 32.1982ZM136.482 30.5938C134.673 30.5938 133.829 29.015 133.829 27.1294C133.829 25.2501 134.673 23.6521 136.482 23.6521C138.278 23.6521 139.122 25.2501 139.122 27.1294C139.122 29.015 138.278 30.5938 136.482 30.5938Z" fill="white"/>
<path d="M148.103 32.0001H150.078V26.292H155.639V24.5981H150.078V20.6095H156.22V18.9092H148.103V32.0001Z" fill="white"/>
<path d="M161.318 32.2174C162.942 32.2174 163.856 31.3928 164.22 30.6578H164.297V32.0001H166.163V25.4802C166.163 22.623 163.913 22.0541 162.354 22.0541C160.577 22.0541 158.94 22.77 158.301 24.5597L160.097 24.9688C160.378 24.2721 161.094 23.6009 162.379 23.6009C163.613 23.6009 164.246 24.2465 164.246 25.3588V25.4035C164.246 26.1002 163.53 26.0874 161.766 26.292C159.905 26.5093 158.001 26.9951 158.001 29.2259C158.001 31.1563 159.452 32.2174 161.318 32.2174ZM161.734 30.6833C160.653 30.6833 159.873 30.1975 159.873 29.2515C159.873 28.2288 160.781 27.8644 161.887 27.7174C162.507 27.6343 163.977 27.4681 164.252 27.1933V28.4589C164.252 29.6222 163.325 30.6833 161.734 30.6833Z" fill="white"/>
<path d="M168.709 32.0001H170.62V26.0044C170.62 24.7195 171.611 23.7927 172.966 23.7927C173.362 23.7927 173.81 23.863 173.963 23.9078V22.0796C173.771 22.0541 173.394 22.0349 173.151 22.0349C172.001 22.0349 171.016 22.6869 170.658 23.7416H170.556V22.1819H168.709V32.0001Z" fill="white"/>
<path d="M175.617 32.0001H177.528V25.9468C177.528 24.6237 178.455 23.7032 179.542 23.7032C180.603 23.7032 181.338 24.4063 181.338 25.4738V32.0001H183.243V25.7423C183.243 24.5597 183.965 23.7032 185.212 23.7032C186.221 23.7032 187.052 24.2657 187.052 25.5953V32.0001H188.964V25.4163C188.964 23.1727 187.711 22.0541 185.934 22.0541C184.521 22.0541 183.46 22.7316 182.987 23.7799H182.885C182.457 22.7061 181.555 22.0541 180.245 22.0541C178.947 22.0541 177.982 22.6997 177.573 23.7799H177.452V22.1819H175.617V32.0001Z" fill="white"/>
<path d="M195.757 32.1982C197.898 32.1982 199.413 31.1436 199.848 29.5455L198.039 29.2195C197.694 30.1464 196.863 30.6194 195.776 30.6194C194.14 30.6194 193.04 29.5583 192.989 27.6663H199.969V26.9887C199.969 23.4411 197.847 22.0541 195.623 22.0541C192.887 22.0541 191.084 24.1379 191.084 27.1549C191.084 30.2039 192.861 32.1982 195.757 32.1982ZM192.995 26.2345C193.072 24.841 194.082 23.6329 195.635 23.6329C197.118 23.6329 198.09 24.7323 198.096 26.2345H192.995Z" fill="white"/>
<path d="M202.09 32.0001H204.001V26.0044C204.001 24.7195 204.992 23.7927 206.347 23.7927C206.743 23.7927 207.191 23.863 207.344 23.9078V22.0796C207.152 22.0541 206.775 22.0349 206.532 22.0349C205.382 22.0349 204.397 22.6869 204.039 23.7416H203.937V22.1819H202.09V32.0001Z" fill="white"/>
<path d="M216.355 24.5789C215.959 23.0512 214.764 22.0541 212.641 22.0541C210.423 22.0541 208.851 23.2238 208.851 24.9624C208.851 26.3559 209.695 27.2828 211.536 27.6919L213.198 28.0562C214.144 28.2671 214.585 28.689 214.585 29.3026C214.585 30.0633 213.773 30.6578 212.52 30.6578C211.376 30.6578 210.641 30.1656 210.411 29.2004L208.563 29.4816C208.883 31.2203 210.327 32.1982 212.533 32.1982C214.904 32.1982 216.547 30.939 216.547 29.162C216.547 27.7749 215.665 26.9184 213.862 26.5029L212.303 26.145C211.222 25.8893 210.756 25.5249 210.762 24.8602C210.756 24.1059 211.574 23.569 212.661 23.569C213.85 23.569 214.399 24.2274 214.623 24.8857L216.355 24.5789Z" fill="white"/>
<path d="M50.5739 9.18182V15H51.5852V10.9943H51.6392L53.2472 14.983H54.0028L55.6108 11.0028H55.6648V15H56.6761V9.18182H55.3864L53.6591 13.3977H53.5909L51.8636 9.18182H50.5739ZM58.571 15L59.0511 13.5653H61.2386L61.7216 15H62.8466L60.7955 9.18182H59.4943L57.446 15H58.571ZM59.3352 12.7188L60.1222 10.375H60.1676L60.9545 12.7188H59.3352ZM65.5845 15C67.3572 15 68.4084 13.9034 68.4084 12.0852C68.4084 10.2727 67.3572 9.18182 65.6243 9.18182H63.6129V15H65.5845ZM64.6669 14.0881V10.0938H65.5646C66.7464 10.0938 67.3629 10.7528 67.3629 12.0852C67.3629 13.4233 66.7464 14.0881 65.5334 14.0881H64.6669ZM69.4098 15H73.2166V14.1165H70.4638V12.5284H72.9979V11.6449H70.4638V10.0653H73.1939V9.18182H69.4098V15ZM77.478 15H78.5178L79.6854 10.9176H79.7308L80.8956 15H81.9354L83.5774 9.18182H82.4439L81.3956 13.4602H81.3445L80.2223 9.18182H79.1911L78.0717 13.4574H78.0178L76.9695 9.18182H75.8359L77.478 15ZM85.3622 9.18182H84.3082V15H85.3622V9.18182ZM86.2479 10.0653H88.0462V15H89.0916V10.0653H90.8899V9.18182H86.2479V10.0653ZM91.7848 15H92.8388V12.5284H95.5348V15H96.5916V9.18182H95.5348V11.6449H92.8388V9.18182H91.7848V15ZM99.7223 15H103.339V14.1165H100.776V9.18182H99.7223V15ZM109.226 12.0909C109.226 10.2102 108.078 9.10227 106.553 9.10227C105.024 9.10227 103.879 10.2102 103.879 12.0909C103.879 13.9688 105.024 15.0795 106.553 15.0795C108.078 15.0795 109.226 13.9716 109.226 12.0909ZM108.166 12.0909C108.166 13.4148 107.501 14.1335 106.553 14.1335C105.607 14.1335 104.939 13.4148 104.939 12.0909C104.939 10.767 105.607 10.0483 106.553 10.0483C107.501 10.0483 108.166 10.767 108.166 12.0909ZM110.688 9.18182H109.532L111.58 15H112.881L114.933 9.18182H113.773L112.262 13.7614H112.202L110.688 9.18182ZM115.699 15H119.506V14.1165H116.753V12.5284H119.287V11.6449H116.753V10.0653H119.483V9.18182H115.699V15ZM122.543 15H124.898C126.23 15 126.884 14.321 126.884 13.4148C126.884 12.5341 126.259 12.017 125.639 11.9858V11.929C126.207 11.7955 126.656 11.3977 126.656 10.6903C126.656 9.82386 126.031 9.18182 124.77 9.18182H122.543V15ZM123.597 14.1193V12.4148H124.759C125.409 12.4148 125.812 12.8125 125.812 13.3324C125.812 13.7955 125.494 14.1193 124.73 14.1193H123.597ZM123.597 11.6562V10.0511H124.662C125.281 10.0511 125.602 10.3778 125.602 10.8267C125.602 11.3381 125.188 11.6562 124.639 11.6562H123.597ZM127.403 9.18182L129.519 12.8295V15H130.57V12.8295L132.687 9.18182H131.496L130.073 11.7557H130.016L128.593 9.18182H127.403Z" fill="white"/>
<g clip-path="url(#clip0)">
<mask id="mask0" mask-type="alpha" maskUnits="userSpaceOnUse" x="16" y="13" width="32" height="33">
<path d="M16.9075 20.7836C16.891 22.4719 17.6728 26.1147 20.7937 26.5519C21.0609 29.8789 20.7821 31.2298 20.138 33.4368V45.7139H47.1087C47.1087 45.7139 45.3603 39.9762 44.1215 37.845C42.8827 35.7139 41.517 35.5498 38.2196 34.5477C34.9223 33.5457 31.0427 32.744 31.0427 32.744C31.5895 31.5787 31.3248 30.5494 32.4176 29.7749C32.4176 29.7749 34.0662 29.9754 35.7297 29.6108C37.3933 29.2463 38.0374 28.0323 37.7702 27.0846C37.5029 26.1378 35.8634 26.5378 35.6209 25.8582C35.6209 25.8582 36.4621 24.683 34.9223 24.2459L34.2848 23.2438C34.2848 23.2438 34.6675 22.8702 34.5306 22.5337C34.3937 22.1964 33.6563 22.1238 34.0753 21.1951C34.4943 20.2665 35.1326 19.6149 34.8184 18.9898C34.3302 18.2442 33.5104 18.2624 32.2634 18.1799C30.9825 18.0916 30.4539 17.8244 30.618 16.7927C30.7821 15.7609 30.2477 15.4022 29.5434 14.7226C28.839 14.0422 27.9467 13.2075 27.9467 13.2075L19.8774 15.5572L16.9075 20.7836Z" fill="#C4C4C4" stroke="#1D1D1C" stroke-width="0.123711" stroke-miterlimit="10"/>
</mask>
<g mask="url(#mask0)">
<path d="M48.2741 11.8335H13.0098V47.5721H48.2741V11.8335Z" fill="#FFBDA3"/>
<path d="M17.9279 19.2776C18.2191 21.2446 19.6129 23.1267 22.6323 24.0619L22.4335 26.1386C21.0372 26.8067 19.3366 26.4669 19.3366 26.4669L14.5762 21.6578L17.9279 19.2776Z" fill="#F9A177"/>
<path d="M24.0235 25.8589C24.9703 27.2066 25.0676 27.6561 25.3348 28.4453C25.602 29.2346 26.106 29.6965 32.4177 29.7748L32.0103 32.48C32.0103 32.48 28.647 31.5142 26.5703 30.6862C25.2499 30.1435 24.5027 28.7827 24.12 27.981C23.7373 27.1794 23.4189 25.6948 23.4189 25.6948L24.0235 25.8589Z" fill="#F9A177"/>
<path d="M34.3029 18.2268C34.3574 19.3559 32.5545 21.8243 31.3066 21.7427C31.3066 21.7427 31.8897 22.2895 32.5998 22.1254C33.3099 21.9612 33.6291 21.6066 34.6675 22.0066L36.6345 19.0499L34.3029 18.2268Z" fill="#F9A177"/>
<path d="M23.3832 23.8103C22.664 23.4912 21.6257 24.0833 21.516 24.9757C21.4063 25.8681 22.5725 26.6334 23.6018 26.3324C24.631 26.0322 24.4397 24.8569 24.4397 24.8569L23.3832 23.8103Z" fill="#FFBDA3"/>
<path d="M28.04 29.6841C29.64 29.2651 31.3893 29.1191 32.4178 29.2833C33.447 29.4474 37.0536 29.3014 37.8182 27.2981L38.7287 27.3773V32.3167L28.2693 30.583L28.04 29.6841Z" fill="#F9A177"/>
<path d="M34.2599 26.8042C33.6595 27.1852 34.5106 27.8689 35.0962 27.4318C35.6818 26.9947 35.9853 26.4363 35.9853 26.1749C35.9853 26.1749 35.7362 26.1386 35.5877 25.8928C35.2174 26.2532 34.7011 26.6714 34.2599 26.8042Z" fill="#F9A177"/>
<path d="M23.2952 24.4347C23.2952 24.1881 22.6816 24.1287 22.7163 24.8166C22.7509 25.5044 23.1839 25.53 23.621 25.3172C24.0581 25.1044 23.9946 24.8166 23.6301 24.7522C23.4165 24.7118 23.2952 24.6821 23.2952 24.4347Z" fill="#F9A177"/>
<path d="M34.2842 23.2454C33.5007 23.9645 32.3081 24.8849 28.8838 24.1922C28.8838 24.1922 30.878 26.3596 32.6091 26.3868C33.8438 26.3868 34.6859 25.3485 34.9861 25.0301C35.2863 24.7118 35.0718 24.4816 34.9226 24.2466C34.7733 24.0115 34.2842 23.2454 34.2842 23.2454Z" fill="white"/>
<path d="M33.2896 21.4814C32.855 21.7668 32.5614 21.4146 32.9861 21.0929C33.4109 20.7713 33.4843 20.5461 33.5692 20.316C33.6542 20.0859 33.8909 20.1643 33.8364 20.4802C33.7812 20.7952 33.6599 21.2389 33.2896 21.4814Z" fill="#C17145"/>
<path d="M29.5861 16.7456L29.5012 18.2516L25.9861 18.664L24.4678 20.4248L25.5968 18.1238L29.1432 17.3221L29.5861 16.7456Z" fill="#C17145"/>
<path d="M25.9785 20.8074C26.1303 21.0688 27.3929 21.2404 27.9216 20.8841C28.4494 20.5278 28.1303 20.3332 28.7488 19.802C29.1183 19.4738 28.9962 19.186 28.8874 19.1125L26.9146 19.7864L25.9785 20.8074Z" fill="white"/>
<path d="M26.8796 19.8029C26.1695 20.3407 26.6429 21.2875 27.3076 21.1596C27.9724 21.0318 28.1637 20.4314 27.9633 20.0578C27.7637 19.6842 27.2169 19.657 26.8796 19.8029Z" fill="#577791" stroke="#010202" stroke-width="0.123711" stroke-miterlimit="10"/>
<path d="M26.893 20.7679C27.2847 20.786 27.1387 20.3308 26.893 20.3126C26.5746 20.2895 26.5012 20.7497 26.893 20.7679Z" fill="#F8FBF7"/>
<path d="M25.803 20.6499C25.4928 20.9163 25.8211 21.0639 26.1551 20.7687C26.4891 20.4734 26.6533 20.1881 27.026 19.9819C27.3988 19.7757 28.4743 19.5868 28.9238 19.2594C29.0994 19.12 28.9295 18.871 28.6508 19.0499C28.0133 19.412 27.1514 19.4821 26.744 19.7204C26.3374 19.9596 26.2335 20.2796 25.803 20.6499Z" fill="#010202"/>
</g>
<path d="M16.9075 20.7836C16.891 22.4718 17.6728 26.1147 20.7937 26.5519C21.0609 29.8789 20.7821 31.2298 20.138 33.4368V45.7139H47.1087C47.1087 45.7139 45.3603 39.9762 44.1215 37.845C42.8827 35.7139 41.517 35.5498 38.2196 34.5477C34.9223 33.5457 31.0427 32.744 31.0427 32.744C31.5895 31.5787 31.3248 30.5494 32.4176 29.7749C32.4176 29.7749 34.0662 29.9754 35.7297 29.6108C37.3933 29.2463 38.0374 28.0323 37.7702 27.0846C37.5029 26.1378 35.8634 26.5378 35.6209 25.8582C35.6209 25.8582 36.4621 24.683 34.9223 24.2459L34.2848 23.2438C34.2848 23.2438 34.6675 22.8702 34.5306 22.5337C34.3937 22.1964 33.6563 22.1238 34.0753 21.1951C34.4943 20.2665 35.1326 19.6149 34.8184 18.9898C34.3302 18.2442 33.5104 18.2624 32.2634 18.1799C30.9825 18.0916 30.4539 17.8244 30.618 16.7927C30.7821 15.7609 30.2477 15.4022 29.5434 14.7226C28.839 14.0422 27.9467 13.2075 27.9467 13.2075L19.8774 15.5572L16.9075 20.7836Z" stroke="#1D1D1C" stroke-width="0.182857" stroke-miterlimit="10"/>
<path d="M25.4502 37.5348C24.8003 37.1158 20.9026 35.5868 20.1372 33.4367C20.6461 31.9975 20.8687 30.3851 20.8935 28.6523C17.757 28.9435 16.0935 30.5707 15.5351 31.9917C14.9768 33.4128 14.3937 33.8919 12.5174 34.2202C10.6411 34.5484 9.40234 34.6573 9.40234 34.6573V38.1361L25.4502 37.5348Z" fill="#FF6FB4"/>
<path d="M33.4958 37.1404C33.4958 37.1404 33.4958 34.9936 31.043 32.7445C31.6079 31.5511 31.2343 31.1767 32.0079 30.1433C32.8582 30.6134 33.198 32.5681 35.2178 33.4109C37.7943 34.4856 38.8689 34.2382 39.1972 34.6571C39.5254 35.0761 38.9028 35.213 38.8937 35.5949C38.8846 35.9775 39.7044 35.886 39.7316 36.2777C39.7588 36.6695 38.2075 37.1396 38.2075 37.1396H33.4958V37.1404Z" fill="#FF6FB4"/>
<mask id="mask1" mask-type="alpha" maskUnits="userSpaceOnUse" x="15" y="4" width="14" height="17">
<path d="M16.8709 20.913C15.7055 20.8693 14.5575 16.7968 18.4189 13.153C22.2804 9.50934 24.0659 7.98027 24.8486 6.32253L25.049 6.63181C25.6231 6.03058 25.8053 5.41119 26.0692 4.09985C26.0692 4.09985 26.6796 5.16542 26.8066 6.03058L27.2255 5.08377C28.8074 8.08336 29.3113 11.8054 28.1179 14.2005C27.4713 15.4541 26.014 14.273 23.2725 15.0928C18.7109 16.6689 17.6725 20.9683 16.8709 20.913Z" fill="#C4C4C4" stroke="#010202" stroke-width="0.123711" stroke-miterlimit="10" stroke-linecap="round" stroke-linejoin="round"/>
</mask>
<g mask="url(#mask1)">
<path d="M13.0459 3.17529L13.483 22.993H32.0108V3.34519L13.0459 3.17529Z" fill="#FFD577"/>
</g>
<path d="M16.8709 20.913C15.7055 20.8693 14.5575 16.7968 18.4189 13.153C22.2804 9.50934 24.0659 7.98027 24.8486 6.32253L25.049 6.63181C25.6231 6.03058 25.8053 5.41119 26.0692 4.09985C26.0692 4.09985 26.6796 5.16542 26.8066 6.03058L27.2255 5.08377C28.8074 8.08336 29.3113 11.8054 28.1179 14.2005C27.4713 15.4541 26.014 14.273 23.2725 15.0928C18.7109 16.6689 17.6725 20.9683 16.8709 20.913Z" stroke="#010202" stroke-width="0.182857" stroke-miterlimit="10" stroke-linecap="round" stroke-linejoin="round"/>
<path d="M34.2852 23.2456C33.6204 23.9013 32.4724 24.858 28.8848 24.1924C28.8848 24.1924 30.1879 25.6745 31.7268 26.213C33.2658 26.7516 34.1598 25.832 34.5549 25.4831C34.9499 25.1343 35.3277 24.8827 34.9235 24.2477" stroke="#010202" stroke-width="0.182857" stroke-miterlimit="10" stroke-linecap="round" stroke-linejoin="round"/>
<path d="M15.8999 35.9812C15.8999 35.9812 14.5275 34.7977 15.311 32.505C16.0945 30.2122 18.1704 28.9561 20.8945 28.6526C20.8945 30.0307 20.8425 31.239 20.1382 33.4369" stroke="#010202" stroke-width="0.182857" stroke-miterlimit="10" stroke-linecap="round"/>
<path d="M24.1207 36.8431C21.9351 35.7322 19.8336 34.4184 19.7734 31.7842" stroke="#010202" stroke-width="0.182857" stroke-miterlimit="10" stroke-linecap="round"/>
<path d="M15.2351 32.7483C14.5522 33.6679 14.0054 34.2873 9.40332 34.6576" stroke="#010202" stroke-width="0.182857" stroke-miterlimit="10" stroke-linecap="round"/>
<path d="M31.043 32.7449C32.5003 34.081 33.217 35.5861 33.4355 36.5337" stroke="#010202" stroke-width="0.182857" stroke-miterlimit="10" stroke-linecap="round"/>
<path d="M39.5093 36.5338C39.8343 36.3276 39.7914 36.1437 39.3939 35.9689C38.9955 35.794 38.6846 35.7421 39.0945 35.2505C39.5044 34.759 39.2842 34.5849 38.3629 34.3491C37.4425 34.114 34.9633 33.6769 33.873 32.519C32.7827 31.361 32.8099 30.6691 32.0083 30.1445C31.3073 30.8678 31.553 32.2715 30.4512 33.9565" stroke="#010202" stroke-width="0.182857" stroke-miterlimit="10" stroke-linecap="round"/>
<path d="M32.4178 29.7758C30.3502 29.6364 28.7964 29.7123 26.944 29.4615C25.0925 29.2108 25.311 28.0941 25.0191 27.4624C24.728 26.8306 24.1201 25.9688 24.1201 25.9688" stroke="#010202" stroke-width="0.182857" stroke-miterlimit="10" stroke-linecap="round"/>
<path d="M23.3196 23.8071C22.4808 23.5275 21.4985 24.2022 21.5159 24.9758C21.5332 25.7502 22.141 26.3993 23.1728 26.3968C24.2045 26.3943 24.348 25.4525 24.4024 25.2587" stroke="#010202" stroke-width="0.182857" stroke-miterlimit="10" stroke-linecap="round"/>
<path d="M20.7944 26.5521C20.7581 26.1149 20.4785 25.7751 20.4785 25.7751" stroke="#010202" stroke-width="0.182857" stroke-miterlimit="10" stroke-linecap="round"/>
<path d="M28.6141 23.8071C29.2574 24.1288 28.5531 25.0946 28.6141 25.483" stroke="#010202" stroke-width="0.182857" stroke-miterlimit="10" stroke-linecap="round"/>
<path d="M35.6211 25.8591C34.704 26.7969 33.8438 26.9338 33.8438 26.9338" stroke="#010202" stroke-width="0.182857" stroke-miterlimit="10" stroke-linecap="round"/>
<path d="M27.9092 33.4246C27.2535 32.5257 27.0102 31.4287 27.1925 30.1438" stroke="#010202" stroke-width="0.182857" stroke-miterlimit="10" stroke-linecap="round"/>
<path d="M29.7671 34.9552C29.476 34.4208 29.1238 34.2509 28.431 34.4695C27.7383 34.688 25.5651 35.3437 24.1201 35.6109" stroke="#010202" stroke-width="0.182857" stroke-miterlimit="10" stroke-linecap="round"/>
</g>
<defs>
<linearGradient id="paint0_linear" x1="141.794" y1="-5.3837e-07" x2="4.30545" y2="24.1467" gradientUnits="userSpaceOnUse">
<stop stop-color="#0F9A68"/>
<stop offset="1" stop-color="#007580"/>
</linearGradient>
<clipPath id="clip0">
<rect width="32.6598" height="32" fill="white" transform="translate(10 4)"/>
</clipPath>
</defs>
</svg>
