<svg width="16" height="16" viewBox="0 0 16 16" fill="none" xmlns="http://www.w3.org/2000/svg">
<path fill-rule="evenodd" clip-rule="evenodd" d="M8.00016 1.33331C11.6821 1.33331 14.6668 4.31808 14.6668 7.99998C14.6668 11.6819 11.6821 14.6666 8.00016 14.6666C4.31826 14.6666 1.3335 11.6819 1.3335 7.99998C1.3335 4.31808 4.31826 1.33331 8.00016 1.33331ZM8.00016 2.66665C5.05464 2.66665 2.66683 5.05446 2.66683 7.99998C2.66683 10.9455 5.05464 13.3333 8.00016 13.3333C10.9457 13.3333 13.3335 10.9455 13.3335 7.99998C13.3335 5.05446 10.9457 2.66665 8.00016 2.66665ZM8.00016 3.99998C8.36835 3.99998 8.66683 4.29846 8.66683 4.66665V7.33331H11.3335C11.7017 7.33331 12.0002 7.63179 12.0002 7.99998C12.0002 8.36817 11.7017 8.66665 11.3335 8.66665H8.66683V11.3333C8.66683 11.7015 8.36835 12 8.00016 12C7.63197 12 7.3335 11.7015 7.3335 11.3333V8.66665H4.66683C4.29864 8.66665 4.00016 8.36817 4.00016 7.99998C4.00016 7.63179 4.29864 7.33331 4.66683 7.33331H7.3335V4.66665C7.3335 4.29846 7.63197 3.99998 8.00016 3.99998Z" fill="#FF523A"/>
</svg>
