<svg width="14" height="14" viewBox="0 0 14 14" fill="none" xmlns="http://www.w3.org/2000/svg">
<path fill-rule="evenodd" clip-rule="evenodd" d="M6.7295 0.391573C6.87721 0.325941 7.04283 0.316564 7.19567 0.363445L7.27088 0.391573L13.2709 3.05743C13.5122 3.16464 13.6651 3.40268 13.6669 3.66197L13.6628 3.74029L13.2812 7.17471C13.0861 8.93022 12.1281 10.5069 10.6685 11.4894L10.4979 11.6001L7.35352 13.5653C7.16136 13.6854 6.92327 13.6988 6.72091 13.6054L6.64685 13.5653L3.50251 11.6001C2.00468 10.664 0.998434 9.11759 0.745077 7.37646L0.719199 7.17471L0.337596 3.74029C0.308435 3.47784 0.436802 3.22569 0.659815 3.09341L0.729495 3.05743L6.7295 0.391573ZM7.00016 1.73032L1.71661 4.07785L2.04435 7.02747C2.19505 8.38373 2.93123 9.6028 4.05371 10.368L4.20915 10.4695L7.00016 12.2138L9.79117 10.4695C10.9484 9.74621 11.7283 8.55467 11.9318 7.21154L11.956 7.02747L12.2837 4.07785L7.00016 1.73032ZM8.47596 4.58815C8.70343 4.29863 9.12254 4.24834 9.41205 4.47582C9.67929 4.68579 9.7427 5.05905 9.57196 5.34294L9.52438 5.41191L6.85773 8.7452C6.62844 9.03703 6.2102 9.0819 5.92534 8.86054L5.86212 8.80473L4.52879 7.47141C4.26844 7.21106 4.26844 6.78895 4.52879 6.52861C4.76911 6.28828 5.14727 6.2698 5.40879 6.47315L5.4716 6.52861L6.27357 7.33057L8.47596 4.58815Z" fill="#FF6FB4"/>
</svg>
