<svg width="105" height="40" viewBox="0 0 105 40" fill="none" xmlns="http://www.w3.org/2000/svg">
<path d="M57.1254 26.2892L60.5575 25.2091L59.4425 22.7352C58.6237 23.7631 57.8049 25.0871 57.1254 26.2892ZM55.9582 14.9826L49.2335 0L0 2.78746L13.6411 40L39.8955 31.7247C38.223 29.3206 37.6132 26.4634 39.547 25.0697C41.7073 23.5017 44.9652 25.3136 47.0383 27.8746C49.0418 24.5296 54.669 16.7422 55.9582 14.9826Z" fill="#225E63"/>
<path d="M47.6989 10.8275C49.7547 10.8275 51.4271 9.25957 51.4271 7.30835C51.4271 5.35713 49.7547 3.78918 47.6989 3.78918C45.6432 3.78918 43.9707 5.35713 43.9707 7.30835C43.9707 9.24215 45.6432 10.8275 47.6989 10.8275ZM44.6501 12.3432H50.7477V28.284H44.6501V12.3432Z" fill="#FEFEFE"/>
<path d="M41.6365 16.9949C41.6888 17.0123 41.7236 16.9949 41.7236 16.9426V12.9008C41.7236 12.8485 41.6888 12.7962 41.6365 12.7614C41.6365 12.7614 40.8351 12.2388 38.3961 12.0994C38.2741 12.0297 36.1313 12.0123 35.5564 12.0994C26.6713 12.8137 26.3403 19.2422 26.3403 19.521V21.0889C26.3403 21.2806 26.3403 27.8485 35.5564 28.4234C36.4623 28.4931 38.2219 28.4234 38.3961 28.4234C40.5215 28.4234 41.9849 27.7788 41.9849 27.7788C42.0372 27.7614 42.072 27.7091 42.072 27.6569V23.8764C42.072 23.8241 42.0372 23.8067 42.0024 23.8415C42.0024 23.8415 41.3403 24.3642 38.4483 24.6604C37.6295 24.7475 37.2288 24.7126 36.9327 24.6604C32.8212 23.9635 32.6295 20.967 32.6295 20.967C32.6295 20.9147 32.6121 20.8276 32.6121 20.7928V19.6429C32.6121 19.5907 32.6121 19.5036 32.6295 19.4687C32.6295 19.4687 32.9083 16.2457 36.9327 15.8973H38.4483C40.2079 16.1238 41.6365 16.9949 41.6365 16.9949Z" fill="#FEFEFE"/>
<path d="M9.40625 28.2317C9.40625 28.2839 9.44109 28.3188 9.49336 28.3188H15.4341C15.4864 28.3188 15.5212 28.2839 15.5212 28.2317V23.5975C15.5212 23.5452 15.5561 23.5104 15.6083 23.5104C15.6083 23.5104 25.1031 24.1898 25.1031 17.831C25.1031 12.7961 19.1449 12.256 17.1937 12.3432C17.1589 12.3432 9.49336 12.3432 9.49336 12.3432C9.44109 12.3432 9.40625 12.378 9.40625 12.4303V28.2317ZM15.4167 19.9738V15.8101H16.8801C16.8801 15.8101 18.9881 15.8972 19.1623 17.3432C19.1972 17.4477 19.1972 18.162 19.1623 18.1968C18.8836 19.8867 17.0543 19.9738 17.0543 19.9738H15.4167Z" fill="#FEFEFE"/>
<path d="M47.8749 35.9755C48.3627 35.9755 48.746 35.9755 49.3732 35.6968C51.5334 34.5644 58.8331 16.7421 66.5334 11.2543C66.5857 11.2194 66.638 11.1672 66.6728 11.1149C66.7251 11.0452 66.7251 10.9755 66.7251 10.9755C66.7251 10.9755 66.7251 10.6097 65.5927 10.6097C58.746 10.418 51.6205 24.7909 47.8749 30.4703C47.8226 30.54 47.5787 30.4703 47.5787 30.4703C47.5787 30.4703 45.07 27.5086 42.8923 26.3762C42.8401 26.3588 42.5962 26.2717 42.3348 26.2891C42.1606 26.2891 41.1502 26.4982 40.6798 26.986C40.1223 27.5783 40.1397 27.9093 40.1397 28.6236C40.1397 28.6759 40.1746 28.9198 40.2442 29.0417C40.7843 29.9825 43.2059 33.3275 45.2094 35.1741C45.5056 35.4006 45.9759 35.9755 47.8749 35.9755Z" fill="#2BBC5D"/>
<path d="M71.376 22.7177L72.4213 23.0313C72.3517 23.3275 72.2471 23.5714 72.0903 23.763C71.9335 23.9547 71.7593 24.1114 71.5328 24.1986C71.3064 24.3031 71.0276 24.3553 70.6792 24.3553C70.2611 24.3553 69.9301 24.3031 69.6513 24.1811C69.39 24.0592 69.1635 23.8501 68.9719 23.5365C68.7802 23.2404 68.6757 22.8397 68.6757 22.3693C68.6757 21.7421 68.8499 21.2543 69.1809 20.9059C69.5119 20.5574 69.9997 20.4006 70.6095 20.4006C71.0973 20.4006 71.4632 20.5052 71.7419 20.6968C72.0206 20.8884 72.2297 21.1846 72.3517 21.6027L71.3064 21.8292C71.2715 21.7073 71.2367 21.6202 71.1844 21.5679C71.1147 21.4808 71.045 21.4111 70.9405 21.3588C70.836 21.3066 70.7314 21.2891 70.6269 21.2891C70.3656 21.2891 70.1565 21.3937 70.0172 21.6202C69.9126 21.7769 69.8604 22.0383 69.8604 22.3693C69.8604 22.7874 69.9301 23.0836 70.052 23.2404C70.174 23.3972 70.3656 23.4843 70.5921 23.4843C70.8186 23.4843 70.9928 23.4146 71.0973 23.2926C71.2367 23.1358 71.3238 22.9616 71.376 22.7177Z" fill="#225E63"/>
<path d="M72.8394 22.3693C72.8394 21.7421 73.0137 21.2543 73.3621 20.9059C73.7105 20.5574 74.1983 20.3832 74.8255 20.3832C75.4701 20.3832 75.9579 20.5574 76.3063 20.8884C76.6548 21.2369 76.829 21.7073 76.829 22.3344C76.829 22.7874 76.7593 23.1532 76.6025 23.432C76.4457 23.7107 76.2367 23.9372 75.9405 24.094C75.6617 24.2508 75.2959 24.3379 74.8778 24.3379C74.4422 24.3379 74.0938 24.2682 73.7976 24.1289C73.5189 23.9895 73.2924 23.7804 73.1008 23.4668C72.9091 23.1533 72.8394 22.8222 72.8394 22.3693ZM74.0241 22.3693C74.0241 22.7526 74.0938 23.0313 74.2332 23.2055C74.3725 23.3797 74.5642 23.4668 74.8255 23.4668C75.0868 23.4668 75.2785 23.3797 75.4178 23.2229C75.5572 23.0487 75.6269 22.7526 75.6269 22.3344C75.6269 21.9686 75.5572 21.7073 75.4004 21.5505C75.261 21.3762 75.052 21.3066 74.8081 21.3066C74.5642 21.3066 74.3725 21.3937 74.2332 21.5679C74.0938 21.7073 74.0241 21.986 74.0241 22.3693Z" fill="#225E63"/>
<path d="M78.9893 20.4529L79.5816 22.7874L80.174 20.4529H81.7245V24.2857H80.7489V21.3588L79.9998 24.2857H79.1287L78.3795 21.3588V24.2857H77.4039V20.4529H78.9893Z" fill="#225E63"/>
<path d="M82.491 20.4529H84.4596C84.8952 20.4529 85.2088 20.5574 85.4178 20.7665C85.6269 20.9756 85.7314 21.2543 85.7314 21.6376C85.7314 22.0208 85.6095 22.3344 85.383 22.5435C85.1565 22.77 84.7906 22.8745 84.3203 22.8745H83.6757V24.3031H82.491V20.4529ZM83.6757 22.0905H83.9718C84.1983 22.0905 84.3551 22.0557 84.4596 21.9686C84.5467 21.8815 84.599 21.7944 84.599 21.6724C84.599 21.5505 84.5642 21.4459 84.4771 21.3588C84.39 21.2717 84.2506 21.2369 84.0241 21.2369H83.6931V22.0905H83.6757Z" fill="#225E63"/>
<path d="M86.3586 20.4529H87.5433V23.3449H89.39V24.2857H86.3586V20.4529Z" fill="#225E63"/>
<path d="M89.9823 20.4529H91.167V24.2857H89.9823V20.4529Z" fill="#225E63"/>
<path d="M94.3725 23.6411H93.0311L92.8394 24.2682H91.6373L93.0833 20.4355H94.3725L95.8185 24.2682H94.5816L94.3725 23.6411ZM94.1286 22.8222L93.7105 21.4459L93.2924 22.8222H94.1286Z" fill="#225E63"/>
<path d="M96.1844 20.4529H97.282L98.7279 22.5783V20.4529H99.8429V24.2857H98.7279L97.2994 22.1776V24.2857H96.1844V20.4529Z" fill="#225E63"/>
<path d="M100.366 20.4529H103.972V21.3937H102.77V24.2857H101.585V21.3937H100.383V20.4529H100.366Z" fill="#225E63"/>
<path d="M68.5537 5.87101H74.2506C75.383 5.87101 76.2889 6.02781 76.9683 6.32397C77.6652 6.63756 78.2401 7.0731 78.6757 7.63059C79.1286 8.20551 79.4596 8.86753 79.6513 9.61665C79.8603 10.3658 79.9649 11.1672 79.9649 12.0208C79.9649 13.3449 79.8081 14.3728 79.5119 15.1045C79.2157 15.8362 78.7976 16.4459 78.2575 16.9512C77.7175 17.439 77.1426 17.77 76.5328 17.9442C75.6966 18.1707 74.93 18.2752 74.2506 18.2752H68.5537V5.87101ZM72.3865 8.67589V15.4529H73.3272C74.1286 15.4529 74.7035 15.3658 75.0346 15.1916C75.3656 15.0174 75.6443 14.7038 75.8359 14.2682C76.0276 13.8327 76.1321 13.101 76.1321 12.1079C76.1321 10.7839 75.9231 9.8954 75.4875 9.40759C75.052 8.91979 74.3551 8.67589 73.3447 8.67589H72.3865Z" fill="#225E63"/>
<path d="M81.0276 14.1811L84.6861 13.9546C84.7732 14.547 84.93 14.9999 85.1739 15.3135C85.5746 15.8188 86.1321 16.0627 86.8638 16.0627C87.4039 16.0627 87.8394 15.9407 88.1356 15.6794C88.4318 15.418 88.5886 15.1219 88.5886 14.7909C88.5886 14.4773 88.4492 14.1811 88.1705 13.9198C87.8917 13.6585 87.2297 13.432 86.2018 13.2055C84.5119 12.8222 83.3272 12.317 82.5955 11.6898C81.8638 11.0626 81.5154 10.2613 81.5154 9.28565C81.5154 8.64105 81.707 8.04872 82.0729 7.4738C82.4387 6.89889 82.9962 6.46335 83.7454 6.13234C84.4945 5.80133 85.5049 5.64453 86.7941 5.64453C88.3795 5.64453 89.599 5.9407 90.4178 6.53303C91.2541 7.12537 91.7419 8.06613 91.8987 9.35533L88.275 9.56439C88.1705 9.0069 87.9788 8.60621 87.6652 8.34488C87.3516 8.08356 86.9335 7.96161 86.3935 7.96161C85.9405 7.96161 85.6095 8.04871 85.383 8.24035C85.1565 8.43199 85.052 8.65847 85.052 8.93722C85.052 9.12885 85.1391 9.32049 85.3307 9.47729C85.505 9.63408 85.9405 9.79087 86.6199 9.93024C88.2924 10.2961 89.4945 10.662 90.2262 11.0278C90.9579 11.3937 91.4806 11.864 91.8116 12.4041C92.1426 12.9442 92.2994 13.5714 92.2994 14.2508C92.2994 15.0522 92.0729 15.7839 91.6374 16.4459C91.2018 17.1254 90.5746 17.6306 89.7907 17.979C89.0067 18.3275 87.9962 18.5017 86.7941 18.5017C84.6861 18.5017 83.2227 18.101 82.4039 17.2822C81.6025 16.4633 81.1495 15.4355 81.0276 14.1811Z" fill="#225E63"/>
<path d="M93.275 14.1811L96.9335 13.9546C97.0206 14.547 97.1774 14.9999 97.4213 15.3135C97.822 15.8188 98.3795 16.0627 99.1112 16.0627C99.6513 16.0627 100.087 15.9407 100.383 15.6794C100.679 15.418 100.836 15.1219 100.836 14.7909C100.836 14.4773 100.697 14.1811 100.418 13.9198C100.139 13.6585 99.477 13.432 98.4492 13.2055C96.7593 12.8222 95.5746 12.317 94.8429 11.6898C94.1286 11.0626 93.7628 10.2613 93.7628 9.28565C93.7628 8.64105 93.9544 8.04872 94.3202 7.4738C94.6861 6.89889 95.2436 6.46335 95.9927 6.13234C96.7418 5.80133 97.7523 5.64453 99.0415 5.64453C100.627 5.64453 101.846 5.9407 102.665 6.53303C103.501 7.12537 103.989 8.06613 104.146 9.35533L100.522 9.56439C100.418 9.0069 100.226 8.60621 99.9126 8.34488C99.599 8.08356 99.1809 7.96161 98.6408 7.96161C98.1878 7.96161 97.8568 8.04871 97.6304 8.24035C97.4039 8.43199 97.2993 8.65847 97.2993 8.93722C97.2993 9.12885 97.3865 9.32049 97.5781 9.47729C97.7523 9.63408 98.1878 9.79087 98.8673 9.93024C100.54 10.2961 101.742 10.662 102.474 11.0278C103.205 11.3937 103.728 11.864 104.059 12.4041C104.39 12.9442 104.547 13.5714 104.547 14.2508C104.547 15.0522 104.32 15.7839 103.885 16.4459C103.449 17.1254 102.822 17.6306 102.038 17.979C101.254 18.3275 100.244 18.5017 99.0415 18.5017C96.9335 18.5017 95.4701 18.101 94.6513 17.2822C93.8324 16.4633 93.3795 15.4355 93.275 14.1811Z" fill="#225E63"/>
</svg>
