<svg width="44" height="44" viewBox="0 0 44 44" fill="none" xmlns="http://www.w3.org/2000/svg">
<path d="M10.0537 19.789C15.8841 17.2488 19.7719 15.5742 21.7172 14.7651C27.2714 12.4549 28.4256 12.0536 29.1778 12.0402C29.3433 12.0374 29.7132 12.0784 29.9528 12.2728C30.1551 12.437 30.2108 12.6588 30.2374 12.8145C30.2641 12.9701 30.2973 13.3247 30.2709 13.6018C29.9699 16.7643 28.6676 24.4388 28.005 27.9808C27.7246 29.4795 27.1726 29.9821 26.6382 30.0312C25.4767 30.1381 24.5948 29.2637 23.4699 28.5263C21.7096 27.3724 20.7152 26.6541 19.0065 25.5282C17.0319 24.2269 18.312 23.5117 19.4373 22.3429C19.7318 22.037 24.8491 17.3824 24.9482 16.9602C24.9606 16.9074 24.9721 16.7105 24.8551 16.6066C24.7382 16.5026 24.5656 16.5382 24.441 16.5665C24.2645 16.6065 21.4525 18.4652 16.0049 22.1424C15.2067 22.6905 14.4838 22.9576 13.836 22.9436C13.1219 22.9281 11.7483 22.5398 10.7271 22.2079C9.47459 21.8007 8.47913 21.5855 8.56581 20.894C8.61096 20.5339 9.10692 20.1655 10.0537 19.789Z" fill="#FF523A"/>
<circle cx="21" cy="21" r="19" stroke="#FF523A" stroke-width="2"/>
</svg>
