<svg width="40" height="40" viewBox="0 0 40 40" fill="none" xmlns="http://www.w3.org/2000/svg">
<rect width="40" height="40" rx="20" fill="#FF523A"/>
<path fill-rule="evenodd" clip-rule="evenodd" d="M40 20C40 31.0457 31.0457 40 20 40C8.9543 40 0 31.0457 0 20C0 8.9543 8.9543 0 20 0C31.0457 0 40 8.9543 40 20ZM20.7173 14.765C18.772 15.5742 14.8841 17.2488 9.0537 19.789C8.10693 20.1655 7.61098 20.5339 7.56583 20.894C7.48952 21.5027 8.25174 21.7423 9.28968 22.0687C9.43086 22.1131 9.57714 22.1591 9.72711 22.2079C10.7483 22.5398 12.1219 22.9281 12.836 22.9436C13.4838 22.9576 14.2068 22.6905 15.0049 22.1424C20.4525 18.4652 23.2645 16.6065 23.4411 16.5664C23.5656 16.5382 23.7382 16.5026 23.8552 16.6066C23.9721 16.7105 23.9606 16.9074 23.9482 16.9602C23.8727 17.2821 20.8808 20.0637 19.3324 21.5031C18.8497 21.9519 18.5073 22.2702 18.4373 22.3429C18.2806 22.5058 18.1208 22.6598 17.9672 22.8078C17.0185 23.7224 16.3071 24.4082 18.0066 25.5282C18.8233 26.0664 19.4768 26.5114 20.1288 26.9554C20.8408 27.4403 21.551 27.924 22.4699 28.5263C22.704 28.6797 22.9276 28.8391 23.1454 28.9944C23.974 29.5851 24.7185 30.1159 25.6382 30.0312C26.1726 29.9821 26.7246 29.4795 27.005 27.9808C27.6676 24.4387 28.9699 16.7643 29.2709 13.6018C29.2973 13.3247 29.2641 12.9701 29.2375 12.8145C29.2108 12.6588 29.1552 12.437 28.9528 12.2728C28.7132 12.0784 28.3433 12.0374 28.1778 12.0402C27.4256 12.0536 26.2715 12.4549 20.7173 14.765Z" fill="#FF523A"/>
<path d="M9.05368 19.789C14.8841 17.2488 18.7719 15.5742 20.7172 14.7651C26.2714 12.4549 27.4256 12.0536 28.1778 12.0402C28.3433 12.0374 28.7132 12.0784 28.9528 12.2728C29.1551 12.437 29.2108 12.6588 29.2374 12.8145C29.2641 12.9701 29.2973 13.3247 29.2709 13.6018C28.9699 16.7643 27.6676 24.4388 27.005 27.9808C26.7246 29.4795 26.1726 29.9821 25.6382 30.0312C24.4767 30.1381 23.5948 29.2637 22.4699 28.5263C20.7096 27.3724 19.7152 26.6541 18.0065 25.5282C16.0319 24.2269 17.312 23.5117 18.4373 22.3429C18.7318 22.037 23.8491 17.3824 23.9482 16.9602C23.9606 16.9074 23.9721 16.7105 23.8551 16.6066C23.7382 16.5026 23.5656 16.5382 23.441 16.5665C23.2645 16.6065 20.4525 18.4652 15.0049 22.1424C14.2067 22.6905 13.4838 22.9576 12.836 22.9436C12.1219 22.9281 10.7483 22.5398 9.72709 22.2079C8.47459 21.8007 7.47913 21.5855 7.56581 20.894C7.61096 20.5339 8.10692 20.1655 9.05368 19.789Z" fill="white"/>
</svg>
