<svg width="40" height="40" viewBox="0 0 40 40" fill="none" xmlns="http://www.w3.org/2000/svg">
<rect width="40" height="40" rx="20" fill="#FF523A"/>
<g clip-path="url(#clip0)">
<path d="M31.2091 13.9595C30.4653 14.2918 29.6728 14.5122 28.8466 14.6192C29.6966 14.1024 30.3454 13.2899 30.6505 12.3107C29.8579 12.7922 28.9829 13.132 28.0505 13.3218C27.2978 12.5053 26.2255 12 25.0552 12C22.7853 12 20.9575 13.8768 20.9575 16.1773C20.9575 16.5084 20.9849 16.8267 21.0524 17.1298C17.6442 16.9603 14.6278 15.2964 12.6017 12.7615C12.2478 13.3866 12.0403 14.1024 12.0403 14.8727C12.0403 16.319 12.7716 17.6013 13.8614 18.3434C13.2028 18.3306 12.5563 18.1357 12.0091 17.8289C12.0091 17.8416 12.0091 17.8584 12.0091 17.8747C12.0091 19.9042 13.4302 21.5901 15.2942 21.9784C14.9606 22.0715 14.5966 22.116 14.2192 22.116C13.9567 22.116 13.6919 22.1009 13.4431 22.0448C13.9743 23.6988 15.4817 24.9147 17.2743 24.9541C15.8794 26.0658 14.1079 26.7354 12.1907 26.7354C11.8544 26.7354 11.5321 26.7203 11.2095 26.6781C13.0255 27.8706 15.1778 28.5517 17.4989 28.5517C25.0438 28.5517 29.1688 22.1857 29.1688 16.6675C29.1688 16.4829 29.1626 16.3046 29.154 16.1276C29.9677 15.5395 30.6517 14.805 31.2091 13.9595Z" fill="white"/>
</g>
<defs>
<clipPath id="clip0">
<rect width="20" height="16.5517" fill="white" transform="translate(11.2085 12)"/>
</clipPath>
</defs>
</svg>
