<svg width="16" height="16" viewBox="0 0 16 16" fill="none" xmlns="http://www.w3.org/2000/svg">
<path fill-rule="evenodd" clip-rule="evenodd" d="M3.3335 1.33334H11.3335C12.3986 1.33334 13.2693 2.16596 13.3301 3.21583L13.3335 3.33334L13.3341 5.44736C14.1106 5.72209 14.6668 6.46276 14.6668 7.33334V8.66668C14.6668 9.53726 14.1106 10.2779 13.3341 10.5527L13.3335 12.6667C13.3335 13.7318 12.5009 14.6025 11.451 14.6633L11.3335 14.6667H3.3335C2.26838 14.6667 1.39772 13.8341 1.33689 12.7842L1.3335 12.6667V3.33334C1.3335 2.26822 2.16611 1.39757 3.21598 1.33674L3.3335 1.33334H11.3335H3.3335ZM11.3335 2.66669H3.33349C2.9916 2.66669 2.70982 2.92405 2.67131 3.25561L2.66683 3.33335V12.6667C2.66683 13.0086 2.92419 13.2904 3.25574 13.3289L3.33349 13.3334H11.3335C11.6754 13.3334 11.9572 13.076 11.9957 12.7444L12.0002 12.6667V10.6667H11.3335C10.2289 10.6667 9.33349 9.77126 9.33349 8.66669V7.33335C9.33349 6.22878 10.2289 5.33335 11.3335 5.33335H12.0002V3.33335C12.0002 2.99146 11.7428 2.70968 11.4112 2.67117L11.3335 2.66669ZM12.6668 6.66668H11.3335C10.9653 6.66668 10.6668 6.96516 10.6668 7.33335V8.66668C10.6668 9.03487 10.9653 9.33335 11.3335 9.33335H12.6668C13.035 9.33335 13.3335 9.03487 13.3335 8.66668V7.33335C13.3335 6.96516 13.035 6.66668 12.6668 6.66668Z" fill="#FF523A"/>
</svg>
