<svg width="14" height="14" viewBox="0 0 14 14" fill="none" xmlns="http://www.w3.org/2000/svg">
<path fill-rule="evenodd" clip-rule="evenodd" d="M7.00016 0.333374C10.6821 0.333374 13.6668 3.31814 13.6668 7.00004C13.6668 10.6819 10.6821 13.6667 7.00016 13.6667C3.31826 13.6667 0.333496 10.6819 0.333496 7.00004C0.333496 3.31814 3.31826 0.333374 7.00016 0.333374ZM8.98178 7.66717H5.01852C5.09248 9.00283 5.38624 10.2188 5.8357 11.1177C6.25429 11.9549 6.70159 12.3333 7.00015 12.3333C7.29871 12.3333 7.74601 11.9549 8.16461 11.1177C8.61406 10.2188 8.90782 9.00283 8.98178 7.66717ZM12.2922 7.66737L10.317 7.66755C10.2364 9.29015 9.86481 10.7416 9.30815 11.8102C10.9069 11.0411 12.0636 9.49838 12.2922 7.66737ZM3.68333 7.66755L1.70818 7.66737C1.93673 9.49837 3.09344 11.0411 4.69259 11.8097C4.1704 10.8083 3.81116 9.47007 3.70184 7.96973L3.68333 7.66755ZM4.69216 2.18991L4.67472 2.19904C3.08466 2.97062 1.93562 4.50886 1.70807 6.33329L3.68326 6.33324C3.76385 4.71036 4.13542 3.2587 4.69216 2.18991ZM7.00013 1.66671L6.94594 1.67065C6.64905 1.71281 6.22965 2.09434 5.83568 2.88228C5.38615 3.78134 5.09237 4.99759 5.01847 6.33352H8.9818C8.9079 4.99759 8.61412 3.78134 8.16459 2.88228C7.74599 2.04509 7.29869 1.66671 7.00013 1.66671ZM9.30771 2.19036L9.32277 2.21816C9.87142 3.28431 10.2372 4.72486 10.317 6.33363L12.2922 6.33335C12.0639 4.50205 10.9071 2.95909 9.30771 2.19036Z" fill="#FF523A"/>
</svg>
