<svg width="16" height="12" viewBox="0 0 16 12" fill="none" xmlns="http://www.w3.org/2000/svg">
<path fill-rule="evenodd" clip-rule="evenodd" d="M9.04998 9.44998C9.64998 10.05 9.64998 10.95 9.04998 11.55C8.74998 11.85 8.37498 12 7.99998 12C7.62498 12 7.24998 11.85 6.94998 11.55C6.34998 10.95 6.34998 10.05 6.94998 9.44998C7.54998 8.84999 8.44998 8.84999 9.04998 9.44998ZM7.99993 6C9.19993 6 10.3249 6.45 11.1499 7.35C11.4499 7.65 11.4499 8.1 11.1499 8.4C10.9999 8.55 10.7749 8.625 10.6249 8.625C10.4321 8.625 10.2943 8.5699 10.1644 8.45969L10.0999 8.4C8.97493 7.275 7.09993 7.275 5.97493 8.4C5.67493 8.7 5.22493 8.7 4.92493 8.4C4.648 8.12308 4.6267 7.71834 4.86102 7.42176L4.92493 7.35C5.67493 6.45 6.79993 6 7.99993 6ZM7.99995 2.99997C9.94995 2.99997 11.825 3.74997 13.175 5.17497C13.475 5.47497 13.475 5.92497 13.175 6.22497C13.025 6.37497 12.875 6.44997 12.65 6.44997C12.4571 6.44997 12.3193 6.39487 12.1895 6.28466L12.125 6.22497C11 5.09997 9.57495 4.49997 7.99995 4.49997C6.42495 4.49997 4.99995 5.09997 3.87495 6.22497C3.57495 6.52497 3.12495 6.52497 2.82495 6.22497C2.52495 5.92497 2.52495 5.47497 2.82495 5.17497C4.17495 3.74997 6.04995 2.99997 7.99995 2.99997ZM8 -1.52588e-05C10.775 -1.52588e-05 13.325 1.12498 15.275 3.07498C15.575 3.37498 15.575 3.82498 15.275 4.12498C15.125 4.27498 14.975 4.34998 14.75 4.34998C14.525 4.34998 14.375 4.27498 14.225 4.12498C12.575 2.39998 10.325 1.49998 8 1.49998C5.675 1.49998 3.425 2.39998 1.775 4.12498C1.475 4.42498 1.025 4.42498 0.725 4.12498C0.425 3.82498 0.425 3.37498 0.725 3.07498C2.675 1.12498 5.225 -1.52588e-05 8 -1.52588e-05Z" fill="#109A68"/>
</svg>
